<svg id="eF5GBeJilH81" xmlns="http://www.w3.org/2000/svg" xmlns:xlink="http://www.w3.org/1999/xlink" viewBox="0 0 700 381" shape-rendering="geometricPrecision" text-rendering="geometricPrecision"><defs><linearGradient id="eF5GBeJilH85-fill" x1="399.4348" y1="677.9451" x2="399.9938" y2="516.4786" spreadMethod="pad" gradientUnits="userSpaceOnUse" gradientTransform="translate(0 0)"><stop id="eF5GBeJilH85-fill-0" offset="0%" stop-color="#ffffd5"/><stop id="eF5GBeJilH85-fill-1" offset="18%" stop-color="#fff4c0"/><stop id="eF5GBeJilH85-fill-2" offset="54%" stop-color="#fed88c"/><stop id="eF5GBeJilH85-fill-3" offset="64%" stop-color="#fed07c"/><stop id="eF5GBeJilH85-fill-4" offset="70%" stop-color="#feca7a"/><stop id="eF5GBeJilH85-fill-5" offset="79%" stop-color="#feb974"/><stop id="eF5GBeJilH85-fill-6" offset="88%" stop-color="#ff9e6a"/><stop id="eF5GBeJilH85-fill-7" offset="98%" stop-color="#ff775c"/><stop id="eF5GBeJilH85-fill-8" offset="100%" stop-color="#ff6f59"/></linearGradient><linearGradient id="eF5GBeJilH86-fill" x1="399.5928" y1="627.9961" x2="399.996" y2="516.6755" spreadMethod="pad" gradientUnits="userSpaceOnUse" gradientTransform="translate(0 0)"><stop id="eF5GBeJilH86-fill-0" offset="0%" stop-color="#fcffd8"/><stop id="eF5GBeJilH86-fill-1" offset="19%" stop-color="#fdf7c3"/><stop id="eF5GBeJilH86-fill-2" offset="57%" stop-color="#ffe28f"/><stop id="eF5GBeJilH86-fill-3" offset="64%" stop-color="#ffdd83"/><stop id="eF5GBeJilH86-fill-4" offset="76%" stop-color="#ffd781"/><stop id="eF5GBeJilH86-fill-5" offset="92%" stop-color="#ffc67b"/><stop id="eF5GBeJilH86-fill-6" offset="100%" stop-color="#ffbc77"/></linearGradient></defs><g transform="matrix(.12054-.051456 0.051454 0.120537 82.184361 7.870038)"><g><g><path d="M430,530c0,0,44.91,38.16-30,162-74.91-123.84-30-162-30-162" fill="url(#eF5GBeJilH85-fill)"/><path d="M421.64,530c0,0,30.77,43.39-21.64,130-52.41-86.61-21.64-130-21.64-130" fill="url(#eF5GBeJilH86-fill)"/></g></g><g transform="matrix(.764662 0 0 0.764659 98.8724 134.568)"><g><g transform="translate(42.1161-27.6786)"><path d="M289.21,520.18h127.5c0,7.012324-2.785635,13.737441-7.744097,18.695903s-11.683579,7.744097-18.695903,7.744097h-74.62c-7.012324,0-13.737441-2.785635-18.695903-7.744097s-7.744097-11.683579-7.744097-18.695903v0Z" fill="#ecf2fa"/><path d="M417.25,522.4c-.571088,9.155591-5.847015,17.360906-13.94,21.68-1.572288.752756-3.217539,1.3425-4.91,1.76l.09-.24c1.155327-3.287736.668994-6.929698-1.30853-9.799087s-5.207826-4.620262-8.69147-4.710913l-96.22-2.75c-.627973-1.946623-1.024044-3.960548-1.18-6c.705535.100536,1.417338.150662,2.13.15h33.62v2.35h7.05v-2.35h18c-.19.41-.4.82-.59,1.23l26.7-.02v-1.18h37.32c.645288.00302,1.290056-.03707,1.93-.12Z" fill="#8bbacc"/><path d="M266.9,494.91c0,0-48,59.78-54.51,143.61-.12796,1.754867-1.480265,3.173636-3.22698,3.38558s-3.399085-.84224-3.94302-2.51558c-16.45-50.07-51.38-194.83,57.58-283.14" fill="#68758e"/><path d="M211.68,643.5c.244552.786608.748682,1.467007,1.43,1.93-.958009.642597-2.162403.797367-3.251756.417863s-1.936879-1.249112-2.288244-2.347863c-16.45-50.07-51.38-194.83,57.58-283.14l.1,3.33c-104.08,88.58-69.81,230.37-53.57,279.81Z" transform="translate(0 0.644304)" fill="#9aaacc"/><path d="M497.5,469.65c-1.137707,0-2.06-.922293-2.06-2.06s.922293-2.06,2.06-2.06s2.06.922293,2.06,2.06c0,.546346-.217035,1.070315-.60336,1.45664s-.910294.60336-1.45664.60336Zm0-2.94c-.355927,0-.676807.214405-.813014.543239s-.060918.707337.19076.959015.630182.326967.959015.19076.543239-.457087.543239-.813014c0-.486011-.393989-.88-.88-.88Z" fill="#274b5b"/><path style="isolation:isolate" d="M497.5,471.41c-1.545046,0-2.937956-.930713-3.52922-2.358149s-.26444-3.070487.828072-4.162999s2.735563-1.419335,4.162999-.828072s2.358149,1.984174,2.358149,3.52922c0,2.109728-1.710272,3.82-3.82,3.82Zm0-5.29c-.811859,0-1.47.658141-1.47,1.47s.658141,1.47,1.47,1.47s1.47-.658141,1.47-1.47c0-.389868-.154875-.763768-.430553-1.039447s-.649579-.430553-1.039447-.430553Z" opacity="0.2" fill="#274b5b"/><path d="M495.74,469.65c-1.137707,0-2.06-.922293-2.06-2.06s.922293-2.06,2.06-2.06s2.06.922293,2.06,2.06c0,.546346-.217035,1.070315-.60336,1.45664s-.910294.60336-1.45664.60336Zm0-2.94c-.355927,0-.676807.214405-.813014.543239s-.060918.707337.19076.959015.630182.326967.959015.19076.543239-.457087.543239-.813014c0-.486011-.393989-.88-.88-.88Z" fill="#274b5b"/><path style="isolation:isolate" d="M495.74,471.41c-1.545046,0-2.937956-.930713-3.52922-2.358149s-.26444-3.070487.828072-4.162999s2.735563-1.419335,4.162999-.828072s2.358149,1.984174,2.358149,3.52922c0,2.109728-1.710272,3.82-3.82,3.82Zm0-5.29c-.811859,0-1.47.658141-1.47,1.47s.658141,1.47,1.47,1.47s1.47-.658141,1.47-1.47c0-.389868-.154875-.763768-.430553-1.039447s-.649579-.430553-1.039447-.430553Z" opacity="0.2" fill="#274b5b"/><path d="M491.61,645.27c-.244552.786608-.748682,1.467007-1.43,1.93.958009.642597,2.162403.797367,3.251756.417863s1.936879-1.249112,2.288244-2.347863c16.45-50.07,51.38-194.83-57.58-283.14l-.1,3.33C542.12,454,507.86,595.82,491.61,645.27Z" fill="#fff"/><path d="M436.88,500.79c0,0,48,59.78,54.51,143.61.12796,1.754867,1.480265,3.173636,3.22698,3.38558s3.399085-.84224,3.94302-2.51558C515,595.2,549.94,450.44,441,362.13" fill="#68758e"/><path d="M495.1,648.1c-.334231-.000064-.668159-.020099-1-.06-3.847867-.426667-6.838064-3.547421-7.1-7.41-6.3-81.53-53.08-140.6-53.55-141.19l6.87-5.52c.5.62,12.45,15.6,25.32,41.14c11.55,22.91,25.93,58.83,29.84,101.29c8-25.12,19.6-71.56,16.92-122.19C509,450,484,398.58,438.21,361.44l5.55-6.85c25.339284,20.299621,45.418462,46.401866,58.54,76.1c10.95,24.86,17.31,52.78,18.91,83c2.88,54.46-10.32,104.1-18.45,128.84-1.061923,3.330996-4.163868,5.586588-7.66,5.57Z" fill="#274b5b"/><path d="M208.1,647.51c-3.488762.007841-6.580295-2.246064-7.64-5.57-8.14-24.74-21.34-74.37-18.46-128.84c1.6-30.22,8-58.14,18.91-83c13.121538-29.698134,33.200716-55.800379,58.54-76.1l5.55,6.85c-45.83,37.15-70.8,88.53-74.2,152.72-2.68,50.63,9,97.07,16.92,122.19c3.91-42.45,18.29-78.38,29.84-101.29c12.88-25.54,24.82-40.52,25.32-41.14l6.87,5.52v0c-.18.23-12,15.1-24.44,39.82-11.47,22.8-25.83,58.89-29.11,101.37-.261936,3.862579-3.252133,6.983333-7.1,7.41-.331866.03962-.665778.059654-1,.06Z" fill="#274b5b"/><path d="M362.27,9.5c-2.480817-2.804803-6.045488-4.410855-9.79-4.410855s-7.309183,1.606052-9.79,4.410855C314.48,41.43,235,144.12,235,287.65c0,140.49,30.47,203.58,42.35,222.83c2.54,4.11,8.07,6.76,14.1,6.76h122.07c6.06,0,11.58-2.63,14.1-6.76C439.5,491.23,470,428.14,470,287.65C470,144.12,390.49,41.43,362.27,9.5Z" fill="#68758e"/><rect width="2.35" height="387.79" rx="0" ry="0" transform="translate(350.91 128.28)" fill="#274b5b"/><rect style="isolation:isolate" width="2.35" height="387.79" rx="0" ry="0" transform="translate(348.56 128.28)" opacity="0.2" fill="#274b5b"/><rect style="isolation:isolate" width="2.35" height="387.79" rx="0" ry="0" transform="translate(353.26 128.28)" opacity="0.3" fill="#fff"/><path d="M430.23,124.75h-158c9.633904-23.180279,20.940375-45.629456,33.83-67.17q1.69-2.82,3.35-5.51C331.93,18.36,349.18,0,349.18,0s24,25.53,52.29,71.68l.41.68c9.29,15.36,18.96,32.88,28.35,52.39Z" fill="#ecf2fa"/><path d="M429.05,123.05l-8.64-1.24c-14.27-20.87-53.74-63.46-108.14-69.33c1-1.88,5-5.72,6-7.51C326.08,32.13,333.19,23.5,339,15.28c3.138023-4.466379,8.229887-7.15425,13.687968-7.225545s10.618416,2.482657,13.872032,6.865545C378.837244,31.315062,390.008645,48.509799,400,66.39c.12.22,1.42.45,1.55.68c8.45,15.36,23.98,24.84,27.5,55.98Z" fill="#8bbacc"/><path d="M296,109.73c-1.035107-.001853-1.992974-.547904-2.52191-1.437666s-.551001-1.99212-.05809-2.902334c2.86-5.26,6-10.55,9.13-15.66c3-5,6.08-10.09,8.84-15.13.80876-1.356221,2.544414-1.831359,3.931177-1.076164s1.9293,2.470975,1.228823,3.886164c-2.81,5.16-5.94,10.34-9,15.35s-6.2,10.28-9,15.43c-.50777.937841-1.483599,1.527166-2.55,1.54Z" fill="#fff"/><g opacity="0.4"><path d="M381.81,231.06c3.78-6.12,6.46-11.31,6.87-11.13s-1.76,5.7-5.6,11.91-7.79,10.63-8.1,10.38s3.08-5.02,6.83-11.16Z" fill="#426270"/><ellipse rx="8.69" ry="0.75" transform="matrix(.510093-.860119 0.860119 0.510093 387.951 236.201)" fill="#426270"/><path d="M383.3,235.13c5.52,2.23,10.13,3.77,10,4.18s-5-.51-10.58-2.79-9.77-5-9.57-5.32s4.62,1.72,10.15,3.93Z" fill="#426270"/><path d="M388.52,233.63c5,2.35,9.23,3.83,9.11,4.24s-4.62-.49-9.74-2.88-8.71-5.29-8.48-5.59s4.11,1.92,9.11,4.23Z" fill="#426270"/></g><path d="M300.24,517.53h-5.88c-6.06,0-11.58-2.64-14.1-6.77-11.87-19.3-42.34-82.54-42.34-223.37c0-137.91,73-238.21,103.94-274.46-15.77,18.69-42.08,55-61.8,108v0c-20.23,45.39-36.28,101.77-36.28,166.4c0,140.84,30.47,204.08,42.34,223.37c2.55,4.19,8.07,6.83,14.12,6.83Z" fill="#fff"/><g opacity="0.9"><path d="M277.61,171.19c1.003236-3.926121,2.208168-7.797924,3.61-11.6c1.158298-3.11055,2.493819-6.152198,4-9.11c2.59-5,4.83-7.85,5.76-7.46s.48,3.91-.79,9.28c-.63,2.69-1.43,5.88-2.35,9.35L284.87,173L282,184.43c-.86,3.53-1.67,6.67-2.39,9.34-1.45,5.33-2.69,8.64-3.73,8.54s-1.65-3.63-1.52-9.3c.097867-3.310367.385002-6.612427.86-9.89.590842-4.015145,1.38857-7.997111,2.39-11.93Z" fill="#fff"/></g><g opacity="0.9"><ellipse rx="8.81" ry="3.75" transform="matrix(.1776-.984103 0.984103 0.1776 271.333 216.189)" fill="#fff"/></g><path d="M341.8,195.55c-1.137707,0-2.06-.922293-2.06-2.06s.922293-2.06,2.06-2.06s2.06.922293,2.06,2.06c0,.546346-.217035,1.070315-.60336,1.45664s-.910294.60336-1.45664.60336Zm0-2.94c-.355927,0-.676807.214405-.813014.543239s-.060918.707337.19076.959015.630182.326967.959015.19076.543239-.457087.543239-.813014c0-.486011-.393989-.88-.88-.88Z" fill="#274b5b"/><path style="isolation:isolate" d="M341.8,197.31c-1.545046,0-2.937956-.930713-3.52922-2.358149s-.26444-3.070487.828072-4.162999s2.735563-1.419335,4.162999-.828072s2.358149,1.984174,2.358149,3.52922c0,2.109728-1.710272,3.82-3.82,3.82Zm0-5.29c-.811859,0-1.47.658141-1.47,1.47s.658141,1.47,1.47,1.47s1.47-.658141,1.47-1.47c.005352-.393322-.147157-.772381-.423418-1.0524s-.653224-.437636-1.046582-.4376Z" opacity="0.2" fill="#274b5b"/><path d="M341.8,235.8c-1.137707,0-2.06-.922293-2.06-2.06s.922293-2.06,2.06-2.06s2.06.922293,2.06,2.06c0,.546346-.217035,1.070315-.60336,1.45664s-.910294.60336-1.45664.60336Zm0-2.94c-.355927,0-.676807.214405-.813014.543239s-.060918.707337.19076.959015.630182.326967.959015.19076.543239-.457087.543239-.813014c0-.486011-.393989-.88-.88-.88Z" fill="#274b5b"/><path style="isolation:isolate" d="M341.8,237.56c-1.545046,0-2.937956-.930713-3.52922-2.358149s-.26444-3.070487.828072-4.162999s2.735563-1.419335,4.162999-.828072s2.358149,1.984174,2.358149,3.52922c0,2.109728-1.710272,3.82-3.82,3.82Zm0-5.29c-.811859,0-1.47.658141-1.47,1.47s.658141,1.47,1.47,1.47s1.47-.658141,1.47-1.47c0-.389868-.154875-.763769-.430553-1.039447s-.649579-.430553-1.039447-.430553Z" opacity="0.2" fill="#274b5b"/><path d="M341.8,380.93c-1.137707,0-2.06-.922293-2.06-2.06s.922293-2.06,2.06-2.06s2.06.922293,2.06,2.06c0,.546346-.217035,1.070315-.60336,1.45664s-.910294.60336-1.45664.60336Zm0-2.94c-.355927,0-.676807.214405-.813014.543239s-.060918.707337.19076.959015.630182.326967.959015.19076.543239-.457087.543239-.813014c-.005479-.482101-.397868-.870031-.88-.87Z" fill="#274b5b"/><path style="isolation:isolate" d="M341.8,382.69c-1.545046,0-2.937956-.930713-3.52922-2.358149s-.26444-3.070487.828072-4.162999s2.735563-1.419335,4.162999-.828072s2.358149,1.984174,2.358149,3.52922c0,2.109728-1.710272,3.82-3.82,3.82Zm0-5.29c-.811859,0-1.47.658141-1.47,1.47s.658141,1.47,1.47,1.47s1.47-.658141,1.47-1.47c0-.389868-.154875-.763768-.430553-1.039447s-.649579-.430553-1.039447-.430553Z" opacity="0.2" fill="#274b5b"/><path d="M341.8,424c-1.137707,0-2.06-.922293-2.06-2.06s.922293-2.06,2.06-2.06s2.06.922293,2.06,2.06c0,.546346-.217035,1.070315-.60336,1.45664s-.910294.60336-1.45664.60336Zm0-2.94c-.355927,0-.676807.214405-.813014.543239s-.060918.707337.19076.959015.630182.326967.959015.19076.543239-.457087.543239-.813014c-.010871-.478183-.401694-.860124-.88-.86Z" fill="#274b5b"/><path style="isolation:isolate" d="M341.8,425.78c-1.545046,0-2.937956-.930713-3.52922-2.358149s-.26444-3.070487.828072-4.162999s2.735563-1.419335,4.162999-.828072s2.358149,1.984174,2.358149,3.52922c0,2.109728-1.710272,3.82-3.82,3.82Zm0-5.29c-.811859,0-1.47.658141-1.47,1.47s.658141,1.47,1.47,1.47s1.47-.658141,1.47-1.47-.658141-1.47-1.47-1.47Z" opacity="0.2" fill="#274b5b"/><path d="M341.8,467.11c-1.137707,0-2.06-.922293-2.06-2.06s.922293-2.06,2.06-2.06s2.06.922293,2.06,2.06c0,.546346-.217035,1.070315-.60336,1.45664s-.910294.60336-1.45664.60336Zm0-2.94c-.355927,0-.676807.214405-.813014.543239s-.060918.707337.19076.959015.630182.326967.959015.19076.543239-.457087.543239-.813014c0-.486011-.393989-.88-.88-.88Z" fill="#274b5b"/><path style="isolation:isolate" d="M341.8,468.87c-1.545046,0-2.937956-.930713-3.52922-2.358149s-.26444-3.070487.828072-4.162999s2.735563-1.419335,4.162999-.828072s2.358149,1.984174,2.358149,3.52922c0,2.109728-1.710272,3.82-3.82,3.82Zm0-5.29c-.811859,0-1.47.658141-1.47,1.47s.658141,1.47,1.47,1.47s1.47-.658141,1.47-1.47c0-.389868-.154875-.763768-.430553-1.039447s-.649579-.430553-1.039447-.430553Z" opacity="0.2" fill="#274b5b"/><path d="M341.8,510.19c-1.137707,0-2.06-.922293-2.06-2.06s.922293-2.06,2.06-2.06s2.06.922293,2.06,2.06c0,.546346-.217035,1.070315-.60336,1.45664s-.910294.60336-1.45664.60336Zm0-2.94c-.355927,0-.676807.214405-.813014.543239s-.060918.707337.19076.959015.630182.326967.959015.19076.543239-.457087.543239-.813014c0-.486011-.393989-.88-.88-.88Z" fill="#274b5b"/><path style="isolation:isolate" d="M341.8,512c-1.545046,0-2.937956-.930713-3.52922-2.358149s-.26444-3.070487.828072-4.162999s2.735563-1.419335,4.162999-.828072s2.358149,1.984174,2.358149,3.52922c0,2.109728-1.710272,3.82-3.82,3.82Zm0-5.29c-.811859,0-1.47.658141-1.47,1.47s.658141,1.47,1.47,1.47s1.47-.658141,1.47-1.47c.0108-.396752-.139294-.781011-.416151-1.065402s-.65695-.444745-1.053849-.444598Z" opacity="0.2" fill="#274b5b"/><circle style="isolation:isolate" r="49.65" transform="translate(355.31 245.49)" opacity="0.6" fill="#5c7869"/><circle r="49.65" transform="translate(355.9 227.28)" fill="#94e0f7"/><path d="M372.51,183l-28.33,95.15c-7.231225-1.941346-13.926562-5.501022-19.58-10.41L350.45,181c7.410248-.997175,14.949914-.313615,22.06,2Z" fill="#fff"/><path d="M388.28,191.61l-26.21,88c-1.661257.169282-3.330143.252726-5,.25-2.005445.001628-4.009137-.118593-6-.36L379,185.67c3.304092,1.629643,6.416578,3.621902,9.28,5.94Z" fill="#fff"/><path style="isolation:isolate" d="M320.35,241.28c-.579847-.003043-1.071556-.42693-1.16-1-1.696272-10.756134.347401-21.768676,5.79-31.2c3.08-5.28,6.7-8.45,10.77-9.4.4225-.135186.885121-.021996,1.197477.292988s.421665.778539.282944,1.199891-.502035.729304-.940421.797121c-3.41.8-6.53,3.6-9.27,8.3-5.170304,8.963473-7.111542,19.428511-5.5,29.65.048518.310822-.030176.628086-.218325.880206s-.469898.417849-.781675.459794Z" opacity="0.8" fill="#fff"/><path d="M355.31,286.62c-30.828535,0-55.82-24.991465-55.82-55.82s24.991465-55.82,55.82-55.82s55.82,24.991465,55.82,55.82c-.033069,30.814827-25.005173,55.786931-55.82,55.82Zm0-99.3c-24.013341,0-43.48,19.466659-43.48,43.48s19.466659,43.48,43.48,43.48s43.48-19.466659,43.48-43.48c-.033062-23.998013-19.48198-43.442458-43.48-43.47Z" fill="#274b5b"/><path d="M323.81,514.89v-85.74c-.03662-28.998815,10.890353-56.939574,30.59-78.22v0c19.338773,21.22125,30.039999,48.908887,30,77.62v86.23" fill="#ecf2fa"/><path d="M358.55,362.4c-17.430319,20.30377-27.009119,46.180721-27,72.94v84.26h-7.05v-84.26c-.0004-28.593759,10.945286-56.102891,30.59-76.88v0q1.77,1.94,3.46,3.94Z" fill="#fff"/><path d="M378.52,433.68v84.74l-24.32.05c22.63-45.48,15.45-106.76,10.86-138c8.835178,16.34393,13.461039,34.63086,13.46,53.21Z" fill="#8bbacc"/><rect width="2.35" height="159.23" rx="0" ry="0" transform="translate(350.91 356.84)" fill="#274b5b"/><rect style="isolation:isolate" width="2.35" height="151.59" rx="0" ry="0" transform="translate(349.14 362.71)" opacity="0.2" fill="#274b5b"/><rect style="isolation:isolate" width="2.35" height="151" rx="0" ry="0" transform="translate(353.84 362.71)" opacity="0.8" fill="#fff"/><path d="M389.1,551.61h-74.62c-17.03113-.016538-30.833462-13.81887-30.85-30.85v-4.41h136.32v4.41c-.016538,17.03113-13.81887,30.833462-30.85,30.85Zm-96.21-26.44c2.105665,10.252724,11.123291,17.616353,21.59,17.63h74.62c10.466709-.013647,19.484335-7.377276,21.59-17.63Z" fill="#274b5b"/><polygon points="434.17,130.52 270.07,130.52 272.07,121.71 433.17,121.71 434.17,130.52" fill="#274b5b"/><path d="M412.35,521.65h-122.11c-7.63,0-14.47-3.39-17.85-8.85-12.93-21-43-84.9-43-225.3c0-137.6,72.49-238.35,103.66-275.28c4.539228-5.380588,11.220446-8.485309,18.26-8.485309s13.720772,3.104721,18.26,8.485309v0C400.73,49.15,473.23,149.9,473.2,287.5c0,140.37-30.07,204.32-43,225.3-3.33,5.45-10.2,8.85-17.85,8.85ZM351.28,12.55c-3.551647-.00235-6.98891,1.255618-9.7,3.55-.649563.548301-1.251699,1.150437-1.8,1.8C309.24,54.09,238.2,152.8,238.2,287.5c0,60.21,5.58,112.66,16.58,155.9c9.07,35.64,19.62,55.88,25.11,64.77c1.72,2.79,5.89,4.66,10.35,4.66h122.11c4.49,0,8.64-1.87,10.34-4.65c5.49-8.91,16-29.16,25.12-64.79c11-43.24,16.58-95.69,16.58-155.9c0-134.69-71-233.4-101.56-269.59v0c-2.573268-3.062748-6.263304-4.970767-10.25-5.3q-.65-.05-1.3-.05Z" fill="#274b5b"/><path d="M325.86,516.18h-8.81v-84.26c-.051507-29.732367,11.330378-58.346402,31.79-79.92l3.23-3.41l3.2,3.43c20.095298,21.508143,31.256712,49.854989,31.22,79.29v84.74h-8.81v-84.72c.028043-25.552725-9.080034-50.273634-25.68-69.7-16.912554,19.503865-26.203584,44.46463-26.16,70.28Z" fill="#274b5b"/></g></g></g></g><path d="M-17.752074,476.863133C264.650857,443.14338,677.113214,404.616984,657.09211,326.640055s-788.523872,141.607704-599.904004,25.696053s592.390122-94.047705,586.067668-153.188008-462.799188,59.496588-483.471105,59.496588s5.606835-16.616685-7.720763-41.398519" transform="translate(17.752074-139.387119)" fill="none" stroke="#adb5c6" stroke-width="1.56" stroke-dashoffset="10" stroke-dasharray="15"/></svg>
