<svg id="eJuyCL3Vcrp1" xmlns="http://www.w3.org/2000/svg" xmlns:xlink="http://www.w3.org/1999/xlink" viewBox="0 0 300 300" shape-rendering="geometricPrecision" text-rendering="geometricPrecision"><defs><linearGradient id="eJuyCL3Vcrp37-fill" x1="185.84" y1="493.37" x2="265.83" y2="493.37" spreadMethod="pad" gradientUnits="userSpaceOnUse" gradientTransform="translate(0 0)"><stop id="eJuyCL3Vcrp37-fill-0" offset="0%" stop-color="#c3f6ee"/><stop id="eJuyCL3Vcrp37-fill-1" offset="38%" stop-color="#c6ebfd"/></linearGradient><linearGradient id="eJuyCL3Vcrp55-fill" x1="435.13" y1="499.22" x2="515.13" y2="499.22" spreadMethod="pad" gradientUnits="userSpaceOnUse" gradientTransform="translate(0 0)"><stop id="eJuyCL3Vcrp55-fill-0" offset="0%" stop-color="#c3f6ee"/><stop id="eJuyCL3Vcrp55-fill-1" offset="38%" stop-color="#c6ebfd"/></linearGradient><linearGradient id="eJuyCL3Vcrp67-fill" x1="234.03" y1="256.4" x2="468.09" y2="256.4" spreadMethod="pad" gradientUnits="userSpaceOnUse" gradientTransform="translate(0 0)"><stop id="eJuyCL3Vcrp67-fill-0" offset="0%" stop-color="#c3f6ee"/><stop id="eJuyCL3Vcrp67-fill-1" offset="38%" stop-color="#c6ebfd"/></linearGradient></defs><line x1="-20.508522" y1="0" x2="20.508522" y2="0" transform="matrix(1.048334 0 0 1 90.448587 76.268697)" fill="none" stroke="#87a5b8" stroke-width="3"/><line x1="-20.508522" y1="0" x2="20.508522" y2="0" transform="matrix(1.105664 0 0 1 90.469001 73.392351)" opacity="0.26" fill="none" stroke="#87a5b8" stroke-width="3"/><line x1="-20.508522" y1="0" x2="20.508522" y2="0" transform="matrix(1.054686 0 0 1 83.712102 112.822188)" opacity="0.26" fill="none" stroke="#87a5b8" stroke-width="3"/><line x1="-16.925558" y1="0" x2="16.925558" y2="0" transform="matrix(1.019373 0 0 1 86.202264 115.27194)" fill="none" stroke="#87a5b8" stroke-width="3"/><g transform="matrix(.385314 0 0 0.385311 15.875425 12.471792)"><g><g transform="translate(-3.417911 0)"><g transform="translate(.809649 0)"><g transform="matrix(2.693442 0 0 2.693442-810.651991-208.191355)"><path d="M0,6C0,2.686292,2.686292,0,6,0h59.401098c3.313708,0,6,2.686292,6,6v.472727c0,3.313708-2.686292,6-6,6L-2.89062,12.457321C-0.000001,12.45732,0.532743,10.128926,0,6.472727L0,6Z" transform="matrix(.999998 0 0 0.999978 473.050289 125.067632)" fill="#e8f7fe" stroke-width="0"/><path d="M0,6C0,2.686292,2.686292,0,6,0h65.164152c-5.461048-.000006-5.461048,5.75872-5.461048,5.75872v0c.049684,3.3001,2.195647,6.465213,5.461048,6.517334L6,12.472727c-3.313708,0-6-2.686292-6-6L0,6Z" transform="matrix(.999998 0 0 0.92925 464.145691 137.524685)" fill="#e8f7fe" stroke-width="0"/><path d="M0,6c0-3.313708,1.100485-4.888791-1.831756-5.81156L65.401098,0c3.313708,0,6,2.686292,6,6v.472727c0,3.313708-2.686292,6-6,6h-59.401098c-3.313708,0-6-2.686292-6-6L0,6Z" transform="matrix(.999998 0 0 0.999978 485.831938 148.883774)" fill="#e8f7fe" stroke-width="0"/><path d="M0,6c0-2.931803.052903-5.126831-2.961515-5.777236L65.401098,0c3.313708,0,6,2.686292,6,6v.472727c0,3.313708-2.686292,6-6,6h-59.401098c-3.313708,0-6-2.686292-6-6L0,6Z" transform="matrix(.999998 0 0 0.999978 335.521744 108.763774)" fill="#e8f7fe" stroke-width="0"/><path d="M0,6C0,2.686292,2.686292,0,6,0h65.164152c4.980677-.000003,4.536733,6,4.536733,6s0,0,0,0c.005605,3.395928.247331,6.218145,3.343824,6.218144L6,12.472727c-3.313708,0-6-2.686292-6-6L0,6Z" transform="matrix(.999998 0 0 0.92925 313.835497 97.45486)" fill="#e8f7fe" stroke-width="0"/></g><path d="M288.05,514.37h126.95c0,6.98315-2.774046,13.680289-7.711878,18.618122s-11.634972,7.711878-18.618122,7.711878h-74.28c-6.98315,0-13.680289-2.774046-18.618122-7.711878s-7.711878-11.634972-7.711878-18.618122v0Z" fill="#ecf2fa"/><path d="M415.58,516.59c-.570286,9.119236-5.827541,17.290879-13.89,21.59-1.565617.752124-3.204172,1.34187-4.89,1.76l.09-.24c1.147764-3.272682.663431-6.896731-1.303452-9.753159s-5.179741-4.601666-8.646548-4.696841L291.1,522.5c-.620637-1.92409-1.013323-3.914369-1.17-5.93.702231.100063,1.410676.150188,2.12.15h33.49v2.34h7v-2.34h17.92c-.19.41-.4.82-.59,1.22l26.56-.05v-1.17h37.17c.662201.00215,1.323765-.041286,1.98-.13Z" fill="#8bbacc"/><rect width="2.34" height="21.07" rx="0" ry="0" transform="translate(305.02 517.88)" fill="#274b5b"/><rect style="isolation:isolate" width="2.34" height="18.14" rx="0" ry="0" transform="translate(306.78 517.88)" opacity="0.2" fill="#274b5b"/><rect style="isolation:isolate" width="2.34" height="18.14" rx="0" ry="0" transform="translate(321.41 517.88)" opacity="0.2" fill="#274b5b"/><rect style="isolation:isolate" width="2.34" height="18.14" rx="0" ry="0" transform="translate(350.67 517.88)" opacity="0.2" fill="#274b5b"/><rect style="isolation:isolate" width="2.34" height="18.14" rx="0" ry="0" transform="translate(365.3 517.88)" opacity="0.2" fill="#274b5b"/><rect style="isolation:isolate" width="2.34" height="18.14" rx="0" ry="0" transform="translate(379.93 517.88)" opacity="0.2" fill="#274b5b"/><rect style="isolation:isolate" width="2.34" height="18.14" rx="0" ry="0" transform="translate(375.25 517.88)" opacity="0.3" fill="#fff"/><rect style="isolation:isolate" width="2.34" height="18.14" rx="0" ry="0" transform="translate(361.2 517.88)" opacity="0.3" fill="#fff"/><rect style="isolation:isolate" width="2.34" height="18.14" rx="0" ry="0" transform="translate(346.57 517.88)" opacity="0.3" fill="#fff"/><rect style="isolation:isolate" width="2.34" height="18.14" rx="0" ry="0" transform="translate(331.94 517.88)" opacity="0.3" fill="#fff"/><rect style="isolation:isolate" width="2.34" height="18.14" rx="0" ry="0" transform="translate(317.31 517.88)" opacity="0.3" fill="#fff"/><rect style="isolation:isolate" width="2.34" height="18.14" rx="0" ry="0" transform="translate(302.68 517.88)" opacity="0.3" fill="#fff"/><rect style="isolation:isolate" width="2.34" height="18.14" rx="0" ry="0" transform="translate(336.04 517.88)" opacity="0.2" fill="#274b5b"/><rect width="2.34" height="21.07" rx="0" ry="0" transform="translate(319.56 517.88)" fill="#274b5b"/><rect width="2.34" height="21.07" rx="0" ry="0" transform="translate(334.09 517.88)" fill="#274b5b"/><rect width="2.34" height="21.07" rx="0" ry="0" transform="translate(348.62 517.88)" fill="#274b5b"/><rect width="2.34" height="21.07" rx="0" ry="0" transform="translate(377.69 517.88)" fill="#274b5b"/><rect width="2.34" height="21.07" rx="0" ry="0" transform="translate(392.22 517.88)" fill="#274b5b"/><rect width="2.34" height="21.07" rx="0" ry="0" transform="translate(363.15 517.88)" fill="#274b5b"/><path d="M265.83,489.21c0,0-47.83,59.54-54.29,143-.138323,1.739505-1.482365,3.141077-3.21455,3.352141s-3.373463-.826749-3.92545-2.482141c-16.39-49.87-51.18-194,57.35-282" fill="url(#eJuyCL3Vcrp37-fill)"/><path d="M210.84,637.2c.240524.785874.741304,1.466512,1.42,1.93-.955835.63867-2.156202.791148-3.241359.411736s-1.929002-1.246623-2.278641-2.341736c-16.39-49.87-51.18-194,57.35-282l.1,3.32C160.53,446.74,194.65,588,210.84,637.2Z" fill="#fff"/><path style="isolation:isolate" d="M200.14,617.91c-.28-23.14,5.62-47.4,13.37-69.12c4-11.12,8.41-21.56,12.76-30.84c13.634565-29.078225,19.987371-61.037888,18.51-93.12-.86-18.57-1.56-39.39-1.56-57.94c8.57-10.62,5.66-11.58,17.37-21.07l4.1,138.11c0,0-47.84,59.54-54.3,143-.044396,1.052109-1.383596,5.51021-2.220001,6.15" opacity="0.8" fill="#1b5a6e"/><path d="M200,539.54c-1.104569,0-2-.895431-2-2s.895431-2,2-2s2,.895431,2,2c-.02636,1.093465-.906535,1.97364-2,2Zm0-2.93c-.355927,0-.676807.214405-.813014.543239s-.060918.707337.19076.959015.630182.326967.959015.19076.543239-.457087.543239-.813014c0-.486011-.393989-.88-.88-.88Z" fill="#274b5b"/><path style="isolation:isolate" d="M200,541.29c-1.536957,0-2.922574-.92584-3.510742-2.345803s-.263056-3.05441.823736-4.141203s2.72124-1.411904,4.141203-.823736s2.345803,1.973785,2.345803,3.510742c-.005495,2.096402-1.703598,3.794505-3.8,3.8Zm0-5.27c-.806336,0-1.46.653664-1.46,1.46s.653664,1.46,1.46,1.46s1.46-.653664,1.46-1.46c.005352-.39067-.146103-.767185-.420488-1.045329s-.648806-.434708-1.039512-.434671Z" opacity="0.2" fill="#274b5b"/><path d="M208.17,464c-1.104569,0-2-.895431-2-2s.895431-2,2-2s2,.895431,2,2c-.02636,1.093465-.906535,1.97364-2,2Zm0-2.93c-.355927,0-.676807.214405-.813014.543239s-.060918.707337.19076.959015.630182.326967.959015.19076.543239-.457087.543239-.813014c-.026541-.466382-.412864-.830755-.88-.83Z" fill="#274b5b"/><path style="isolation:isolate" d="M208.17,465.8c-2.094697-.016538-3.780951-1.725109-3.769948-3.819842s1.715114-3.785496,3.809869-3.780027s3.790014,1.705107,3.790079,3.799869c-.002643,1.012215-.407968,1.981774-1.126524,2.694701s-1.691271,1.110616-2.703476,1.105299Zm0-5.27c-.590515,0-1.122884.355718-1.348864.901282s-.101069,1.173537.316488,1.591094s1.045529.542468,1.591094.316488.901282-.758349.901282-1.348864c0-.387216-.153821-.758573-.427624-1.032376s-.64516-.427624-1.032376-.427624Z" opacity="0.2" fill="#274b5b"/><path d="M495.51,464c-1.104569,0-2-.895431-2-2s.895431-2,2-2s2,.895431,2,2c-.02636,1.093465-.906535,1.97364-2,2Zm0-2.93c-.355927,0-.676807.214405-.813014.543239s-.060918.707337.19076.959015.630182.326967.959015.19076.543239-.457087.543239-.813014c-.026541-.466382-.412864-.830755-.88-.83Z" fill="#274b5b"/><path style="isolation:isolate" d="M495.51,465.8c-2.098682,0-3.8-1.701318-3.8-3.8s1.701318-3.8,3.8-3.8s3.8,1.701318,3.8,3.8c-.005495,2.096402-1.703598,3.794505-3.8,3.8Zm0-5.27c-.800919.016481-1.438972.675243-1.429869,1.47628s.661959,1.445131,1.463046,1.443408s1.451167-.648619,1.456823-1.449688c.002784-.394202-.15396-.772777-.434587-1.049637s-.661285-.428473-1.055413-.420363Z" opacity="0.2" fill="#274b5b"/><path d="M493.75,464c-1.104569,0-2-.895431-2-2s.895431-2,2-2s2,.895431,2,2c-.02636,1.093465-.906535,1.97364-2,2Zm0-2.93c-.355927,0-.676807.214405-.813014.543239s-.060918.707337.19076.959015.630182.326967.959015.19076.543239-.457087.543239-.813014c-.026541-.466382-.412864-.830755-.88-.83Z" fill="#274b5b"/><path style="isolation:isolate" d="M493.75,465.8c-2.098682,0-3.8-1.701318-3.8-3.8s1.701318-3.8,3.8-3.8s3.8,1.701318,3.8,3.8c-.005495,2.096402-1.703598,3.794505-3.8,3.8Zm0-5.27c-.590515,0-1.122884.355718-1.348864.901282s-.101069,1.173537.316488,1.591094s1.045529.542468,1.591094.316488.901282-.758349.901282-1.348864c0-.387216-.153821-.758573-.427624-1.032376s-.64516-.427624-1.032376-.427624Z" opacity="0.2" fill="#274b5b"/><rect width="2.34" height="191.95" rx="0" ry="0" transform="translate(217.83 404.35)" fill="#274b5b"/><rect style="isolation:isolate" width="2.34" height="196.63" rx="0" ry="0" transform="translate(220.17 399.67)" opacity="0.2" fill="#274b5b"/><rect style="isolation:isolate" width="2.34" height="191.95" rx="0" ry="0" transform="translate(215.49 404.35)" opacity="0.3" fill="#fff"/><rect width="2.34" height="173.22" rx="0" ry="0" transform="translate(231.29 379.19)" fill="#274b5b"/><rect style="isolation:isolate" width="2.34" height="173.22" rx="0" ry="0" transform="translate(233.63 379.19)" opacity="0.2" fill="#274b5b"/><rect style="isolation:isolate" width="2.34" height="173.22" rx="0" ry="0" transform="translate(228.95 379.19)" opacity="0.3" fill="#fff"/><path d="M489.64,639c-.240524.785874-.741304,1.466512-1.42,1.93.955835.63867,2.156202.791148,3.241359.411736s1.929002-1.246623,2.278641-2.341736c16.39-49.87,51.18-194-57.35-282l-.1,3.32C539.95,448.49,505.82,589.71,489.64,639Z" fill="#fff"/><path d="M435.13,495.06c0,0,47.83,59.54,54.29,143c.138323,1.739505,1.482365,3.141077,3.21455,3.352141s3.373463-.826749,3.92545-2.482141c16.39-49.87,51.18-194-57.35-282" fill="url(#eJuyCL3Vcrp55-fill)"/><path style="isolation:isolate" d="M500.83,623.77c.28-23.14-5.62-47.4-13.37-69.12-4-11.12-8.41-21.56-12.76-30.84-13.634181-29.078351-19.986969-61.037918-18.51-93.12.86-18.57,1.56-39.39,1.56-57.94-8.57-10.62-5.66-11.58-17.37-21.07l-4.1,138.11c0,0,47.84,59.54,54.3,143c.055979,1.03788.563995,1.999092,1.39,2.63" opacity="0.8" fill="#1b5a6e"/><path d="M500.78,540.12c-1.104569,0-2-.895431-2-2s.895431-2,2-2s2,.895431,2,2c-.02636,1.093465-.906535,1.97364-2,2Zm0-2.93c-.355927,0-.676807.214405-.813014.543239s-.060918.707337.19076.959015.630182.326967.959015.19076.543239-.457087.543239-.813014c-.005479-.482101-.397868-.870031-.88-.87Z" fill="#274b5b"/><path style="isolation:isolate" d="M500.78,541.88c-1.536957,0-2.922574-.92584-3.510742-2.345803s-.263056-3.05441.823736-4.141203s2.72124-1.411904,4.141203-.823736s2.345803,1.973785,2.345803,3.510742c-.005495,2.096402-1.703598,3.794505-3.8,3.8Zm0-5.27c-.806336,0-1.46.653664-1.46,1.46s.653664,1.46,1.46,1.46s1.46-.653664,1.46-1.46c0-.387216-.153821-.758573-.427624-1.032376s-.64516-.427624-1.032376-.427624Z" opacity="0.2" fill="#274b5b"/><rect width="2.34" height="197.8" rx="0" ry="0" transform="translate(480.59 403.77)" fill="#274b5b"/><rect style="isolation:isolate" width="2.34" height="182" rx="0" ry="0" transform="translate(478.25 403.18)" opacity="0.2" fill="#274b5b"/><rect style="isolation:isolate" width="2.34" height="191.95" rx="0" ry="0" transform="translate(482.93 409.62)" opacity="0.3" fill="#fff"/><rect width="2.34" height="173.22" rx="0" ry="0" transform="translate(467.13 384.46)" fill="#274b5b"/><rect style="isolation:isolate" width="2.34" height="167.37" rx="0" ry="0" transform="translate(464.79 384.46)" opacity="0.2" fill="#274b5b"/><rect style="isolation:isolate" width="2.34" height="173.22" rx="0" ry="0" transform="translate(469.47 384.46)" opacity="0.3" fill="#fff"/><path d="M493.12,641.78c-.334233.000008-.668166-.020028-1-.06-3.825654-.437915-6.796558-3.539085-7.07-7.38-6.28-81.2-52.87-140-53.34-140.62l6.84-5.5c.5.62,12.4,15.54,25.22,41c11.5,22.81,25.83,58.6,29.72,100.88c7.93-25,19.52-71.28,16.85-121.7-3.38-63.93-28.25-115.11-73.9-152.11l5.53-6.82c25.236388,20.220311,45.233251,46.219663,58.3,75.8c10.9,24.76,17.24,52.57,18.83,82.67c2.87,54.24-10.28,103.68-18.38,128.32-1.072783,3.290112-4.139409,5.517451-7.6,5.52Z" fill="#274b5b"/><path d="M207.26,641.19c-3.472317-.002435-6.546603-2.244523-7.61-5.55-8.1-24.64-21.25-74.08-18.38-128.32c1.59-30.1,7.93-57.91,18.83-82.67c13.066749-29.580337,33.063612-55.579689,58.3-75.8l5.53,6.82c-45.65,37-70.51,88.18-73.9,152.11-2.67,50.42,8.92,96.68,16.85,121.7c3.89-42.28,18.22-78.07,29.72-100.88c12.83-25.44,24.72-40.36,25.22-41l6.84,5.5v0c-.18.23-12,15-24.34,39.66-11.42,22.7-25.72,58.65-29,101-.273442,3.840915-3.244346,6.942085-7.07,7.38-.328743.035956-.659307.052652-.99.05Z" fill="#274b5b"/><path d="M360.82,5.74c-2.46783-2.798256-6.018992-4.401308-9.75-4.401308s-7.28217,1.603052-9.75,4.401308C313.22,37.55,234,139.82,234,282.78c0,139.93,30.34,202.76,42.18,221.94c2.53,4.1,8,6.73,14,6.73h121.69c6,0,11.53-2.62,14-6.73c11.83-19.18,42.18-82,42.18-221.94.06-142.96-79.12-245.24-107.23-277.04Z" fill="url(#eJuyCL3Vcrp67-fill)"/><rect width="2.34" height="386.24" rx="0" ry="0" transform="translate(349.5 124.04)" fill="#274b5b"/><rect style="isolation:isolate" width="2.34" height="386.24" rx="0" ry="0" transform="translate(347.16 124.04)" opacity="0.2" fill="#274b5b"/><rect style="isolation:isolate" width="2.34" height="386.24" rx="0" ry="0" transform="translate(351.84 124.04)" opacity="0.3" fill="#fff"/><path d="M428.5,120.53h-157.36c9.597118-23.087272,20.860143-45.446215,33.7-66.9q1.68-2.81,3.34-5.49C319.7,30.88,329.85,17.65,337,8.88c2.639523-3.246385,6.600971-5.13109,10.785-5.13109s8.145477,1.884705,10.785,5.13109c15.03773,18.681515,28.837197,38.326799,41.31,58.81l.4.67c9.24,15.28,18.87,32.74,28.22,52.17Z" fill="#ecf2fa"/><path d="M427.33,117.85l-8.6-.24C404.52,96.82,365.2,54.4,311,48.55c1-1.87,5-6.7,6-8.49c7.78-12.79,14.86-20.37,20.65-28.57c3.143215-4.422317,8.2085-7.078697,13.633592-7.149846s10.558299,2.451481,13.816408,6.789846c12.202225,16.333589,23.303442,33.461466,33.23,51.27.12.22,1.42.44,1.54.67c8.44,15.31,23.95,23.76,27.46,54.78Z" fill="#8bbacc"/><path d="M294.86,105.57c-1.029802-.003267-1.982286-.546918-2.5088-1.431952s-.549748-1.981504-.0612-2.888048c2.85-5.24,6-10.5,9.09-15.6c3-4.94,6.06-10,8.8-15.07.470507-.972743,1.438215-1.607566,2.51787-1.651741s2.09599.509471,2.644392,1.440525.539846,2.088372-.022262,3.011216c-2.8,5.14-5.92,10.3-8.93,15.29s-6.18,10.24-9,15.37c-.505318.929307-1.472311,1.51409-2.53,1.53Z" fill="#fff"/><path d="M313.36,514.37h-21.36c-6,0-11.53-2.63-14-6.75-11.83-19.22-42.17-82.21-42.17-222.48c0-137.36,72.75-237.25,103.54-273.38C311.68,44.54,251.79,131.27,251.79,268l35.11-49.26c-.68,1.9-71.59,208.15,26.46,295.63Z" fill="#fff"/><path d="M299,511.73h-5.85c-6,0-11.53-2.63-14-6.75C267.31,485.76,237,422.78,237,282.51C237,145.15,309.7,45.25,340.49,9.15c-15.71,18.62-41.91,54.74-61.55,107.6v0C258.79,162,242.81,218.11,242.81,282.49c0,140.27,30.34,203.26,42.17,222.48c2.53,4.14,8.02,6.76,14.02,6.76Z" fill="#fff"/><path style="isolation:isolate" d="M385.22,511.45h21.34c6,0,11.53-2.62,14-6.72c11.83-19.17,42.17-82,42.17-221.83C462.78,146,390,46.33,359.24,10.3c27.66,32.67,94,119.15,94,255.48L422.8,216.66c.69,1.9,60.47,207.56-37.58,294.79Z" opacity="0.8" fill="#1b5a6e"/><g opacity="0.9"><path d="M276.5,166.78c.99719-3.912473,2.195448-7.770929,3.59-11.56c1.139443-3.095935,2.454922-6.124208,3.94-9.07c2.57-5,4.81-7.82,5.74-7.43s.47,3.89-.78,9.25c-.63,2.67-1.43,5.85-2.34,9.32l-2.93,11.32L280.9,180c-.86,3.51-1.67,6.65-2.38,9.3-1.45,5.31-2.67,8.61-3.72,8.5s-1.64-3.62-1.51-9.26c.095552-3.29684.379347-6.58553.85-9.85.580801-4.008033,1.36852-7.983344,2.36-11.91Z" fill="#fff"/></g><g opacity="0.9"><ellipse rx="8.78" ry="3.73" transform="matrix(.1776-.984103 0.984103 0.1776 270.252374 211.608153)" fill="#fff"/></g><path d="M340.43,151c-1.104569,0-2-.895431-2-2s.895431-2,2-2s2,.895431,2,2c-.02636,1.093465-.906535,1.97364-2,2Zm0-2.93c-.355927,0-.676807.214405-.813014.543239s-.060918.707337.19076.959015.630182.326967.959015.19076.543239-.457087.543239-.813014c.019573-.245262-.064426-.487518-.231627-.668019s-.402332-.282761-.648373-.281981Z" fill="#274b5b"/><path style="isolation:isolate" d="M340.43,152.72c-2.098682,0-3.8-1.701318-3.8-3.8s1.701318-3.8,3.8-3.8s3.8,1.701318,3.8,3.8c-.005495,2.096402-1.703598,3.794505-3.8,3.8Zm0-5.27c-.590515,0-1.122884.355718-1.348864.901282s-.101069,1.173537.316488,1.591094s1.045529.542468,1.591094.316488.901282-.758349.901282-1.348864c0-.806336-.653664-1.46-1.46-1.46Z" opacity="0.2" fill="#274b5b"/><path d="M360.91,163.84c-1.104569,0-2-.895431-2-2s.895431-2,2-2s2,.895431,2,2c-.02636,1.093465-.906535,1.97364-2,2Zm0-2.93c-.355927,0-.676807.214405-.813014.543239s-.060918.707337.19076.959015.630182.326967.959015.19076.543239-.457087.543239-.813014c0-.486011-.393989-.88-.88-.88Z" fill="#274b5b"/><path style="isolation:isolate" d="M360.91,165.59c-2.098682,0-3.8-1.701318-3.8-3.8s1.701318-3.8,3.8-3.8s3.8,1.701318,3.8,3.8c-.005495,2.096402-1.703598,3.794505-3.8,3.8Zm0-5.27c-.590515,0-1.122884.355718-1.348864.901282s-.101069,1.173537.316488,1.591094s1.045529.542468,1.591094.316488.901282-.758349.901282-1.348864c0-.806336-.653664-1.46-1.46-1.46Z" opacity="0.2" fill="#274b5b"/><path d="M360.91,309.55c-1.104569,0-2-.895431-2-2s.895431-2,2-2s2,.895431,2,2c-.02636,1.093465-.906535,1.97364-2,2Zm0-2.93c-.355927,0-.676807.214405-.813014.543239s-.060918.707337.19076.959015.630182.326967.959015.19076.543239-.457087.543239-.813014c-.005479-.482101-.397868-.870031-.88-.87Z" fill="#274b5b"/><path style="isolation:isolate" d="M360.91,311.31c-2.098682,0-3.8-1.701318-3.8-3.8s1.701318-3.8,3.8-3.8s3.8,1.701318,3.8,3.8c-.005495,2.096402-1.703598,3.794505-3.8,3.8Zm0-5.27c-.590515,0-1.122884.355718-1.348864.901282s-.101069,1.173537.316488,1.591094s1.045529.542468,1.591094.316488.901282-.758349.901282-1.348864c.010801-.394099-.138238-.775816-.413221-1.058332s-.652532-.441816-1.046779-.441668Z" opacity="0.2" fill="#274b5b"/><path d="M361.5,339.4c-1.104569,0-2-.895431-2-2s.895431-2,2-2s2,.895431,2,2c-.02636,1.093465-.906535,1.97364-2,2Zm0-2.93c-.355927,0-.676807.214405-.813014.543239s-.060918.707337.19076.959015.630182.326967.959015.19076.543239-.457087.543239-.813014c0-.486011-.393989-.88-.88-.88Z" fill="#274b5b"/><path style="isolation:isolate" d="M361.5,341.15c-2.098682,0-3.8-1.701318-3.8-3.8s1.701318-3.8,3.8-3.8s3.8,1.701318,3.8,3.8c-.005495,2.096402-1.703598,3.794505-3.8,3.8Zm0-5.27c-.590515,0-1.122884.355718-1.348864.901282s-.101069,1.173537.316488,1.591094s1.045529.542468,1.591094.316488.901282-.758349.901282-1.348864c-.005496-.802428-.657553-1.450019-1.46-1.45Z" opacity="0.2" fill="#274b5b"/><path d="M338.67,301.36c-1.104569,0-2-.895431-2-2s.895431-2,2-2s2,.895431,2,2c-.02636,1.093465-.906535,1.97364-2,2Zm0-2.93c-.355927,0-.676807.214405-.813014.543239s-.060918.707337.19076.959015.630182.326967.959015.19076.543239-.457087.543239-.813014c0-.486011-.393989-.88-.88-.88Z" fill="#274b5b"/><path style="isolation:isolate" d="M338.67,303.11c-2.098682,0-3.8-1.701318-3.8-3.8s1.701318-3.8,3.8-3.8s3.8,1.701318,3.8,3.8c-.005495,2.096402-1.703598,3.794505-3.8,3.8Zm0-5.27c-.590515,0-1.122884.355718-1.348864.901282s-.101069,1.173537.316488,1.591094s1.045529.542468,1.591094.316488.901282-.758349.901282-1.348864c-.005496-.802428-.657553-1.450019-1.46-1.45Z" opacity="0.2" fill="#274b5b"/><path d="M338.67,331.2c-1.104569,0-2-.895431-2-2s.895431-2,2-2s2,.895431,2,2c-.02636,1.093465-.906535,1.97364-2,2Zm0-2.93c-.355927,0-.676807.214405-.813014.543239s-.060918.707337.19076.959015.630182.326967.959015.19076.543239-.457087.543239-.813014c-.005479-.482101-.397868-.870031-.88-.87Z" fill="#274b5b"/><path style="isolation:isolate" d="M338.67,333c-2.098682,0-3.8-1.701318-3.8-3.8s1.701318-3.8,3.8-3.8s3.8,1.701318,3.8,3.8c-.005495,2.096402-1.703598,3.794505-3.8,3.8Zm0-5.27c-.590515,0-1.122884.355718-1.348864.901282s-.101069,1.173537.316488,1.591094s1.045529.542468,1.591094.316488.901282-.758349.901282-1.348864c.010801-.394099-.138238-.775816-.413221-1.058332s-.652532-.441816-1.046779-.441668Z" opacity="0.2" fill="#274b5b"/><path d="M387.25,108.83c-1.104569,0-2-.895431-2-2s.895431-2,2-2s2,.895431,2,2c-.02636,1.093465-.906535,1.97364-2,2Zm0-2.93c-.355927,0-.676807.214405-.813014.543239s-.060918.707337.19076.959015.630182.326967.959015.19076.543239-.457087.543239-.813014c0-.486011-.393989-.88-.88-.88Z" fill="#274b5b"/><path style="isolation:isolate" d="M387.25,110.58c-2.098682,0-3.8-1.701318-3.8-3.8s1.701318-3.8,3.8-3.8s3.8,1.701318,3.8,3.8c-.005495,2.096402-1.703598,3.794505-3.8,3.8Zm0-5.27c-.590515,0-1.122884.355718-1.348864.901282s-.101069,1.173537.316488,1.591094s1.045529.542468,1.591094.316488.901282-.758349.901282-1.348864c0-.806336-.653664-1.46-1.46-1.46Z" opacity="0.2" fill="#274b5b"/><path d="M313.51,108.83c-1.104569,0-2-.895431-2-2s.895431-2,2-2s2,.895431,2,2c-.02636,1.093465-.906535,1.97364-2,2Zm0-2.93c-.355927,0-.676807.214405-.813014.543239s-.060918.707337.19076.959015.630182.326967.959015.19076.543239-.457087.543239-.813014c0-.486011-.393989-.88-.88-.88Z" fill="#274b5b"/><path style="isolation:isolate" d="M313.51,110.58c-2.098682,0-3.8-1.701318-3.8-3.8s1.701318-3.8,3.8-3.8s3.8,1.701318,3.8,3.8c-.005495,2.096402-1.703598,3.794505-3.8,3.8Zm0-5.27c-.590515,0-1.122884.355718-1.348864.901282s-.101069,1.173537.316488,1.591094s1.045529.542468,1.591094.316488.901282-.758349.901282-1.348864c0-.806336-.653664-1.46-1.46-1.46Z" opacity="0.2" fill="#274b5b"/><path d="M350.38,108.83c-1.104569,0-2-.895431-2-2s.895431-2,2-2s2,.895431,2,2c-.02636,1.093465-.906535,1.97364-2,2Zm0-2.93c-.355927,0-.676807.214405-.813014.543239s-.060918.707337.19076.959015.630182.326967.959015.19076.543239-.457087.543239-.813014c0-.486011-.393989-.88-.88-.88Z" fill="#274b5b"/><path style="isolation:isolate" d="M350.38,110.58c-2.098682,0-3.8-1.701318-3.8-3.8s1.701318-3.8,3.8-3.8s3.8,1.701318,3.8,3.8c-.005495,2.096402-1.703598,3.794505-3.8,3.8Zm0-5.27c-.590515,0-1.122884.355718-1.348864.901282s-.101069,1.173537.316488,1.591094s1.045529.542468,1.591094.316488.901282-.758349.901282-1.348864c0-.806336-.653664-1.46-1.46-1.46Z" opacity="0.2" fill="#274b5b"/><path d="M340.43,375.68c-1.104569,0-2-.895431-2-2s.895431-2,2-2s2,.895431,2,2c-.02636,1.093465-.906535,1.97364-2,2Zm0-2.93c-.355927,0-.676807.214405-.813014.543239s-.060918.707337.19076.959015.630182.326967.959015.19076.543239-.457087.543239-.813014c0-.486011-.393989-.88-.88-.88Z" fill="#274b5b"/><path style="isolation:isolate" d="M340.43,377.44c-2.098682,0-3.8-1.701318-3.8-3.8s1.701318-3.8,3.8-3.8s3.8,1.701318,3.8,3.8c-.005495,2.096402-1.703598,3.794505-3.8,3.8Zm0-5.27c-.590515,0-1.122884.355718-1.348864.901282s-.101069,1.173537.316488,1.591094s1.045529.542468,1.591094.316488.901282-.758349.901282-1.348864c0-.806336-.653664-1.46-1.46-1.46Z" opacity="0.2" fill="#274b5b"/><path d="M340.43,418.59c-1.104569,0-2-.895431-2-2s.895431-2,2-2s2,.895431,2,2c-.02636,1.093465-.906535,1.97364-2,2Zm0-2.93c-.355927,0-.676807.214405-.813014.543239s-.060918.707337.19076.959015.630182.326967.959015.19076.543239-.457087.543239-.813014c-.005479-.482101-.397868-.870031-.88-.87Z" fill="#274b5b"/><path style="isolation:isolate" d="M340.43,420.35c-2.098682,0-3.8-1.701318-3.8-3.8s1.701318-3.8,3.8-3.8s3.8,1.701318,3.8,3.8c-.005495,2.096402-1.703598,3.794505-3.8,3.8Zm0-5.27c-.590515,0-1.122884.355718-1.348864.901282s-.101069,1.173537.316488,1.591094s1.045529.542468,1.591094.316488.901282-.758349.901282-1.348864c0-.387216-.153821-.758573-.427624-1.032376s-.64516-.427624-1.032376-.427624Z" opacity="0.2" fill="#274b5b"/><path d="M340.43,461.51c-1.104569,0-2-.895431-2-2s.895431-2,2-2s2,.895431,2,2c-.02636,1.093465-.906535,1.97364-2,2Zm0-2.93c-.355927,0-.676807.214405-.813014.543239s-.060918.707337.19076.959015.630182.326967.959015.19076.543239-.457087.543239-.813014c-.005479-.482101-.397868-.870031-.88-.87Z" fill="#274b5b"/><path style="isolation:isolate" d="M340.43,463.27c-2.098682,0-3.8-1.701318-3.8-3.8s1.701318-3.8,3.8-3.8s3.8,1.701318,3.8,3.8c-.005495,2.096402-1.703598,3.794505-3.8,3.8Zm0-5.27c-.590515,0-1.122884.355718-1.348864.901282s-.101069,1.173537.316488,1.591094s1.045529.542468,1.591094.316488.901282-.758349.901282-1.348864c0-.806336-.653664-1.46-1.46-1.46Z" opacity="0.2" fill="#274b5b"/><path d="M340.43,504.43c-1.104569,0-2-.895431-2-2s.895431-2,2-2s2,.895431,2,2c-.02636,1.093465-.906535,1.97364-2,2Zm0-2.93c-.355927,0-.676807.214405-.813014.543239s-.060918.707337.19076.959015.630182.326967.959015.19076.543239-.457087.543239-.813014c0-.486011-.393989-.88-.88-.88Z" fill="#274b5b"/><path style="isolation:isolate" d="M340.43,506.18c-2.098682,0-3.8-1.701318-3.8-3.8s1.701318-3.8,3.8-3.8s3.8,1.701318,3.8,3.8c-.005495,2.096402-1.703598,3.794505-3.8,3.8Zm0-5.27c-.590515,0-1.122884.355718-1.348864.901282s-.101069,1.173537.316488,1.591094s1.045529.542468,1.591094.316488.901282-.758349.901282-1.348864c0-.806336-.653664-1.46-1.46-1.46Z" opacity="0.2" fill="#274b5b"/><path d="M322.51,509.11v-85.4c-.031146-28.886847,10.860313-56.7174,30.49-77.91v0c19.276627,21.12937,29.946608,48.708649,29.91,77.31v85.89" fill="#ecf2fa"/><path d="M357.11,357.22c-17.371291,20.218922-26.921916,45.993546-26.92,72.65v83.92h-7v-83.92c.000629-28.478898,10.903384-55.877123,30.47-76.57v0q1.77,1.93,3.45,3.92Z" fill="#fff"/><path d="M377,428.22v84.4l-24.22.05c22.54-45.3,15.39-106.33,10.82-137.44c8.79664,16.276943,13.401843,34.488115,13.4,52.99Z" fill="#8bbacc"/><path d="M341,403.18c-1.104569,0-2-.895431-2-2s.895431-2,2-2s2,.895431,2,2c-.02636,1.093465-.906535,1.97364-2,2Zm0-2.93c-.355927,0-.676807.214405-.813014.543239s-.060918.707337.19076.959015.630182.326967.959015.19076.543239-.457087.543239-.813014c-.005479-.482101-.397868-.870031-.88-.87Z" fill="#274b5b"/><path style="isolation:isolate" d="M341,404.94c-2.098682,0-3.8-1.701318-3.8-3.8s1.701318-3.8,3.8-3.8s3.8,1.701318,3.8,3.8c-.005495,2.096402-1.703598,3.794505-3.8,3.8Zm0-5.27c-.590515,0-1.122884.355718-1.348864.901282s-.101069,1.173537.316488,1.591094s1.045529.542468,1.591094.316488.901282-.758349.901282-1.348864c0-.806336-.653664-1.46-1.46-1.46Z" opacity="0.2" fill="#274b5b"/><path d="M341,488.62c-1.104569,0-2-.895431-2-2s.895431-2,2-2s2,.895431,2,2c-.02636,1.093465-.906535,1.97364-2,2Zm0-2.93c-.355927,0-.676807.214405-.813014.543239s-.060918.707337.19076.959015.630182.326967.959015.19076.543239-.457087.543239-.813014c-.005479-.482101-.397868-.870031-.88-.87Z" fill="#274b5b"/><path style="isolation:isolate" d="M341,490.38c-2.098682,0-3.8-1.701318-3.8-3.8s1.701318-3.8,3.8-3.8s3.8,1.701318,3.8,3.8c-.005495,2.096402-1.703598,3.794505-3.8,3.8Zm0-5.27c-.590515,0-1.122884.355718-1.348864.901282s-.101069,1.173537.316488,1.591094s1.045529.542468,1.591094.316488.901282-.758349.901282-1.348864c0-.806336-.653664-1.46-1.46-1.46Z" opacity="0.2" fill="#274b5b"/><path d="M341,445.9c-1.104569,0-2-.895431-2-2s.895431-2,2-2s2,.895431,2,2c-.02636,1.093465-.906535,1.97364-2,2Zm0-2.93c-.355927,0-.676807.214405-.813014.543239s-.060918.707337.19076.959015.630182.326967.959015.19076.543239-.457087.543239-.813014c-.016177-.474256-.405468-.850276-.88-.85Z" fill="#274b5b"/><path style="isolation:isolate" d="M341,447.66c-2.098682,0-3.8-1.701318-3.8-3.8s1.701318-3.8,3.8-3.8s3.8,1.701318,3.8,3.8c-.005495,2.096402-1.703598,3.794505-3.8,3.8Zm0-5.27c-.590515,0-1.122884.355718-1.348864.901282s-.101069,1.173537.316488,1.591094s1.045529.542468,1.591094.316488.901282-.758349.901282-1.348864c0-.387216-.153821-.758573-.427624-1.032376s-.64516-.427624-1.032376-.427624Z" opacity="0.2" fill="#274b5b"/><path d="M359.74,403.18c-1.104569,0-2-.895431-2-2s.895431-2,2-2s2,.895431,2,2c-.02636,1.093465-.906535,1.97364-2,2Zm0-2.93c-.355927,0-.676807.214405-.813014.543239s-.060918.707337.19076.959015.630182.326967.959015.19076.543239-.457087.543239-.813014c-.005479-.482101-.397868-.870031-.88-.87Z" fill="#274b5b"/><path style="isolation:isolate" d="M359.74,404.94c-2.098682,0-3.8-1.701318-3.8-3.8s1.701318-3.8,3.8-3.8s3.8,1.701318,3.8,3.8c-.005495,2.096402-1.703598,3.794505-3.8,3.8Zm0-5.27c-.590515,0-1.122884.355718-1.348864.901282s-.101069,1.173537.316488,1.591094s1.045529.542468,1.591094.316488.901282-.758349.901282-1.348864c0-.806336-.653664-1.46-1.46-1.46Z" opacity="0.2" fill="#274b5b"/><path d="M359.74,488.62c-1.104569,0-2-.895431-2-2s.895431-2,2-2s2,.895431,2,2c-.02636,1.093465-.906535,1.97364-2,2Zm0-2.93c-.355927,0-.676807.214405-.813014.543239s-.060918.707337.19076.959015.630182.326967.959015.19076.543239-.457087.543239-.813014c-.005479-.482101-.397868-.870031-.88-.87Z" fill="#274b5b"/><path style="isolation:isolate" d="M359.74,490.38c-2.098682,0-3.8-1.701318-3.8-3.8s1.701318-3.8,3.8-3.8s3.8,1.701318,3.8,3.8c-.005495,2.096402-1.703598,3.794505-3.8,3.8Zm0-5.27c-.590515,0-1.122884.355718-1.348864.901282s-.101069,1.173537.316488,1.591094s1.045529.542468,1.591094.316488.901282-.758349.901282-1.348864c0-.806336-.653664-1.46-1.46-1.46Z" opacity="0.2" fill="#274b5b"/><path d="M359.74,445.9c-1.104569,0-2-.895431-2-2s.895431-2,2-2s2,.895431,2,2c-.02636,1.093465-.906535,1.97364-2,2Zm0-2.93c-.355927,0-.676807.214405-.813014.543239s-.060918.707337.19076.959015.630182.326967.959015.19076.543239-.457087.543239-.813014c-.016177-.474256-.405468-.850276-.88-.85Z" fill="#274b5b"/><path style="isolation:isolate" d="M359.74,447.66c-2.098682,0-3.8-1.701318-3.8-3.8s1.701318-3.8,3.8-3.8s3.8,1.701318,3.8,3.8c-.005495,2.096402-1.703598,3.794505-3.8,3.8Zm0-5.27c-.590515,0-1.122884.355718-1.348864.901282s-.101069,1.173537.316488,1.591094s1.045529.542468,1.591094.316488.901282-.758349.901282-1.348864c0-.387216-.153821-.758573-.427624-1.032376s-.64516-.427624-1.032376-.427624Z" opacity="0.2" fill="#274b5b"/><rect width="2.34" height="158.59" rx="0" ry="0" transform="translate(349.5 351.69)" fill="#274b5b"/><rect style="isolation:isolate" width="2.34" height="150.98" rx="0" ry="0" transform="translate(347.74 357.54)" opacity="0.2" fill="#274b5b"/><rect style="isolation:isolate" width="2.34" height="150.4" rx="0" ry="0" transform="translate(352.43 357.54)" opacity="0.8" fill="#fff"/><path d="M387.54,545.68h-74.32c-16.945375-.016469-30.685937-13.734674-30.73-30.68v-4.39h135.77v4.39c-.044047,16.941428-13.778529,30.658027-30.72,30.68Zm-95.83-26.33c2.103151,10.206708,11.078885,17.537587,21.5,17.56h74.32c10.40984-.036593,19.369156-7.364287,21.47-17.56Z" fill="#274b5b"/><path style="isolation:isolate" d="M412.81,154.56v0c4.084383-.987417,8.393741-.311466,11.97964,1.879083s6.154454,5.716169,7.14036,9.800917l3.77,15.6c.998829,4.092862.326028,8.415012-1.869614,12.010611s-5.733215,6.168385-9.830386,7.149389v0c-4.084383.987417-8.393741.311466-11.97964-1.879083s-6.154454-5.716169-7.14036-9.800917l-3.77-15.6c-.998829-4.092862-.326028-8.415012,1.869614-12.010611s5.733215-6.168385,9.830386-7.149389Z" opacity="0.15" fill="#fff"/><path style="isolation:isolate" d="M398.74,147.68v0c3.478209-2.35679,7.750259-3.235172,11.876163-2.441874s7.767613,3.193281,10.123837,6.671874v0c2.35679,3.478209,3.235172,7.750259,2.441874,11.876163s-3.193281,7.767613-6.671874,10.123837v0c-3.478209,2.35679-7.750259,3.235172-11.876163,2.441874s-7.767613-3.193281-10.123837-6.671874v0c-2.35679-3.478209-3.235172-7.750259-2.441874-11.876163s3.193281-7.767613,6.671874-10.123837Z" opacity="0.15" fill="#fff"/><rect width="146.3" height="2.93" rx="0" ry="0" transform="translate(273.13 115.56)" fill="#8bbacc"/><rect width="160.45" height="8.78" rx="0" ry="0" transform="matrix(1.028507 0 0 1 268.693026 117.5)" fill="#274b5b"/><path d="M410.69,515.84h-121.61c-7.6,0-14.42-3.38-17.78-8.81-12.88-20.89-42.83-84.56-42.83-224.4c0-137.05,72.2-237.39,103.24-274.17c4.520227-5.359082,11.174136-8.45149,18.185-8.45149s13.664773,3.092408,18.185,8.45149v0c31,36.78,103.25,137.13,103.22,274.17c0,139.81-30,203.5-42.83,224.39-3.31,5.43-10.13,8.82-17.78,8.82ZM349.87,8.78c-3.538174-.004367-6.96244,1.250488-9.66,3.54-.645877.545339-1.244661,1.144123-1.79,1.79C308,50.16,237.25,148.47,237.25,282.63c0,60,5.56,112.21,16.51,155.28c9,35.49,19.54,55.65,25,64.51c1.72,2.78,5.86,4.64,10.31,4.64h121.62c4.47,0,8.61-1.86,10.3-4.63c5.47-8.88,16-29,25-64.53c11-43.07,16.52-95.31,16.52-155.28c0-134.15-70.73-232.47-101.15-268.51v0c-2.561584-3.052953-6.238086-4.95422-10.21-5.28q-.64-.05-1.28-.05Z" fill="#274b5b"/><path d="M324.56,510.39h-8.78v-83.93c-.043802-29.607339,11.294749-58.098716,31.67-79.58l3.21-3.4l3.19,3.42c20.019148,21.429953,31.13448,49.674121,31.09,79v84.4h-8.78v-84.4c.034503-25.446503-9.027208-50.067402-25.55-69.42-16.840221,19.428689-26.091738,44.288811-26.05,70Z" fill="#274b5b"/><path d="M495.51,462.88c-1.104569,0-2-.895431-2-2s.895431-2,2-2s2,.895431,2,2c-.02636,1.093465-.906535,1.97364-2,2Zm0-2.93c-.355927,0-.676807.214405-.813014.543239s-.060918.707337.19076.959015.630182.326967.959015.19076.543239-.457087.543239-.813014c0-.486011-.393989-.88-.88-.88Z" fill="#274b5b"/><path style="isolation:isolate" d="M495.51,464.63c-2.098682,0-3.8-1.701318-3.8-3.8s1.701318-3.8,3.8-3.8s3.8,1.701318,3.8,3.8c-.005495,2.096402-1.703598,3.794505-3.8,3.8Zm0-5.27c-.590515,0-1.122884.355718-1.348864.901282s-.101069,1.173537.316488,1.591094s1.045529.542468,1.591094.316488.901282-.758349.901282-1.348864c0-.806336-.653664-1.46-1.46-1.46Z" opacity="0.2" fill="#274b5b"/></g></g></g></g><path d="M54.599494,72.265702l14.349312.014062-.006019,186.639717-18.877447-.014854.000002-176.828385l4.534152-9.81054Z" transform="matrix(1 0 0 1.000396 0.006015-.112716)" fill="#a4becf" stroke="#a4becf" stroke-width="0.6"/><rect width="24.227026" height="186.182299" rx="0" ry="0" transform="matrix(.609199 0 0 1.062986 54.477869 71.874571)" fill="#87a5b8" stroke-width="0"/><rect width="3.555969" height="8.430605" rx="0" ry="0" transform="matrix(1.076745-.075293 0.064078 0.916356 99.62685 141.089566)" fill="#3f5787" stroke-width="0"/><rect width="3.555969" height="8.430605" rx="0" ry="0" transform="matrix(1.076745-.075293 0.064078 0.916356 99.293389 130.471309)" fill="#3f5787" stroke-width="0"/><path d="M95.355565,133.621366c-2.040722.133872-6.242907,1.058393-9.296471,4.696941s-8.848532,11.093104-15.096035,11.093104c-4.165002,0-2.291635-7.454558-6.247503-7.454559" transform="translate(4.541807 11.197047)" fill="none" stroke="#3f5787" stroke-width="2"/><path d="M95.355565,133.621366c-5.998221.096255-6.021332,12.888653-6.922997,19.60077s-2.102952,13.982936-7.98756,14.21027-8.961319-25.469398-15.479344-25.352595" transform="translate(4.271285 0.616408)" fill="none" stroke="#3f5787" stroke-width="2"/><line x1="-126.95309" y1="0" x2="126.953091" y2="0" transform="matrix(.947065 0 0 1 151.767735 264.197048)" fill="none" stroke="#6f92ab" stroke-width="10" stroke-linecap="round"/><line x1="-141.14265" y1="0" x2="145.128496" y2="0" transform="matrix(.904815 0 0 1 150.261709 272.960186)" fill="#f08778" stroke="#6f92ab" stroke-width="10" stroke-linecap="round"/><line x1="-65.355859" y1="0" x2="65.355858" y2="0" transform="translate(201.796704 261.697048)" fill="none" stroke="#3e6d8c" stroke-width="5" stroke-linecap="round"/><line x1="-65.355859" y1="0" x2="65.355858" y2="0" transform="matrix(.92126 0 0 1 107.254292 270.501582)" fill="none" stroke="#3e6d8c" stroke-width="5" stroke-linecap="round"/><line x1="-65.355859" y1="0" x2="65.355858" y2="0" transform="matrix(.392874 0 0 1 79.214718 261.697048)" fill="none" stroke="#3e6d8c" stroke-width="5" stroke-linecap="round"/><g transform="matrix(.381099 0 0 0.381099-23.288202 64.460943)"><circle style="isolation:isolate" r="49.45" transform="translate(456.752183 112.39)" opacity="0.6" fill="#5c7869"/><circle r="49.45" transform="translate(457.332182 94.249999)" fill="#94e0f7"/><path style="isolation:isolate" d="M353.89,269.17c-23.748244,0-43-19.251756-43-43s19.251756-43,43-43s43,19.251756,43,43c-.033049,23.734541-19.265459,42.966951-43,43Zm0-83.1c-22.138489.011044-40.07736,17.964836-40.069998,40.103327s17.95817,40.080347,40.096661,40.076667s40.083334-17.951502,40.083337-40.089994c-.022065-22.139758-17.970234-40.078977-40.11-40.09Z" transform="translate(103.152181-128.4)" opacity="0.2" fill="#274b5b"/><path d="M371,178.56l-28.2,94.77c-7.201857-1.921024-13.873109-5.453265-19.51-10.33L349,176.57c7.389703-.998155,14.909351-.317968,22,1.99Z" transform="translate(103.152182-128.4)" fill="#fff"/><path d="M386.73,187.12l-26.1,87.65c-1.66123.169638-3.330134.253083-5,.25-2.00546.002123-4.009182-.1181-6-.36l27.83-93.46c3.30049,1.622546,6.409711,3.608154,9.27,5.92Z" transform="translate(103.152181-128.4)" fill="#fff"/><path style="isolation:isolate" d="M319.06,236.59c-.57763-.003746-1.066081-.428486-1.15-1-1.687282-10.711781.349296-21.678241,5.77-31.07c3.07-5.26,6.67-8.41,10.72-9.37.629605-.149117,1.260883.240395,1.41.87s-.240395,1.260883-.87,1.41c-3.4.8-6.51,3.58-9.24,8.26-5.150689,8.926724-7.084906,19.349613-5.48,29.53.048518.310822-.030176.628086-.218325.880206s-.469898.417849-.781675.459794Z" transform="translate(103.152183-128.4)" opacity="0.8" fill="#fff"/><path style="isolation:isolate" d="M387.83,231.13c-2.098682,0-3.8-1.701318-3.8-3.8s1.701318-3.8,3.8-3.8s3.8,1.701318,3.8,3.8c-.005495,2.096402-1.703598,3.794505-3.8,3.8Zm0-5.27c-.590515,0-1.122884.355718-1.348864.901282s-.101069,1.173537.316488,1.591094s1.045529.542468,1.591094.316488.901282-.758349.901282-1.348864c-.005496-.802428-.657553-1.450019-1.46-1.45Z" transform="translate(103.152181-128.4)" opacity="0.2" fill="#274b5b"/><path d="M353.89,281.75c-30.701509,0-55.59-24.888491-55.59-55.59s24.888491-55.59,55.59-55.59s55.59,24.888491,55.59,55.59c-.038567,30.68552-24.90448,55.551433-55.59,55.59Zm0-98.9c-23.919453,0-43.31,19.390547-43.31,43.31s19.390547,43.31,43.31,43.31s43.31-19.390547,43.31-43.31c-.022052-23.910312-19.399688-43.287948-43.31-43.31Z" transform="translate(103.152181-128.4)" fill="#274b5b"/></g><rect width="36.810888" height="39.426891" rx="0" ry="0" transform="matrix(1.000001 0 0 1.204725 230.671984 211.608095)" fill="#fce8e6" stroke-width="0"/><rect width="2.872932" height="45.688893" rx="0" ry="0" transform="translate(264.620324 213.066565)" fill="#ffdedb" stroke-width="0"/><line x1="-18.101508" y1="0" x2="18.101508" y2="0" transform="translate(249.123151 212.382792)" fill="none" stroke="#ede1df" stroke-width="3" stroke-linecap="round"/><line x1="-18.101508" y1="0" x2="18.101508" y2="0" transform="translate(249.123152 228.297742)" fill="none" stroke="#ede1df" stroke-width="3" stroke-linecap="round"/><line x1="-18.101508" y1="0" x2="18.101508" y2="0" transform="translate(249.123154 242.597694)" fill="none" stroke="#ede1df" stroke-width="3" stroke-linecap="round"/><line x1="-18.101508" y1="0" x2="18.101508" y2="0" transform="translate(249.123152 257.696308)" fill="none" stroke="#ede1df" stroke-width="3" stroke-linecap="round"/><line x1="0" y1="-5.465712" x2="0" y2="5.465712" transform="matrix(1 0 0 0.8533 233.211273 220.365666)" fill="none" stroke="#fffafa" stroke-width="3" stroke-linecap="round"/><line x1="0" y1="-5.465712" x2="0" y2="5.465712" transform="matrix(1 0 0 0.786239 233.211273 250.101516)" fill="none" stroke="#fffafa" stroke-width="3" stroke-linecap="round"/><line x1="0" y1="-5.465712" x2="0" y2="5.465712" transform="matrix(1.000001 0 0 0.693398 233.211273 235.487309)" fill="none" stroke="#fffafa" stroke-width="3" stroke-linecap="round"/></svg>
