<svg id="e4xsDhBjA1J1" xmlns="http://www.w3.org/2000/svg" xmlns:xlink="http://www.w3.org/1999/xlink" viewBox="0 0 300 300" shape-rendering="geometricPrecision" text-rendering="geometricPrecision"><defs><linearGradient id="e4xsDhBjA1J27-fill" x1="0" y1="269.48" x2="752.86" y2="269.48" spreadMethod="pad" gradientUnits="userSpaceOnUse" gradientTransform="translate(0 0)"><stop id="e4xsDhBjA1J27-fill-0" offset="0%" stop-color="#c3f6ee"/><stop id="e4xsDhBjA1J27-fill-1" offset="38%" stop-color="#c6ebfd"/></linearGradient><linearGradient id="e4xsDhBjA1J28-fill" x1="185.84" y1="493.37" x2="265.83" y2="493.37" spreadMethod="pad" gradientUnits="userSpaceOnUse" gradientTransform="translate(0 0)"><stop id="e4xsDhBjA1J28-fill-0" offset="0%" stop-color="#c3f6ee"/><stop id="e4xsDhBjA1J28-fill-1" offset="38%" stop-color="#c6ebfd"/></linearGradient><linearGradient id="e4xsDhBjA1J49-fill" x1="435.13" y1="499.22" x2="515.13" y2="499.22" spreadMethod="pad" gradientUnits="userSpaceOnUse" gradientTransform="translate(0 0)"><stop id="e4xsDhBjA1J49-fill-0" offset="0%" stop-color="#c3f6ee"/><stop id="e4xsDhBjA1J49-fill-1" offset="38%" stop-color="#c6ebfd"/></linearGradient><linearGradient id="e4xsDhBjA1J79-fill" x1="234.03" y1="256.4" x2="468.09" y2="256.4" spreadMethod="pad" gradientUnits="userSpaceOnUse" gradientTransform="translate(0 0)"><stop id="e4xsDhBjA1J79-fill-0" offset="0%" stop-color="#c3f6ee"/><stop id="e4xsDhBjA1J79-fill-1" offset="38%" stop-color="#c6ebfd"/></linearGradient></defs><g transform="matrix(.398459 0 0 0.388966 0.016011-.003487)"><g><g><g><path d="M288.05,514.37h126.95c0,6.98315-2.774046,13.680289-7.711878,18.618122s-11.634972,7.711878-18.618122,7.711878h-74.28c-6.98315,0-13.680289-2.774046-18.618122-7.711878s-7.711878-11.634972-7.711878-18.618122v0Z" fill="#ecf2fa"/><path d="M415.58,516.59c-.570286,9.119236-5.827541,17.290879-13.89,21.59-1.565617.752124-3.204172,1.34187-4.89,1.76l.09-.24c1.147764-3.272682.663431-6.896731-1.303452-9.753159s-5.179741-4.601666-8.646548-4.696841L291.1,522.5c-.620637-1.92409-1.013323-3.914369-1.17-5.93.702231.100063,1.410676.150188,2.12.15h33.49v2.34h7v-2.34h17.92c-.19.41-.4.82-.59,1.22l26.56-.05v-1.17h37.17c.662201.00215,1.323765-.041286,1.98-.13Z" fill="#8bbacc"/><rect width="2.34" height="21.07" rx="0" ry="0" transform="translate(305.02 517.88)" fill="#274b5b"/><rect style="isolation:isolate" width="2.34" height="18.14" rx="0" ry="0" transform="translate(306.78 517.88)" opacity="0.2" fill="#274b5b"/><rect style="isolation:isolate" width="2.34" height="18.14" rx="0" ry="0" transform="translate(321.41 517.88)" opacity="0.2" fill="#274b5b"/><rect style="isolation:isolate" width="2.34" height="18.14" rx="0" ry="0" transform="translate(350.67 517.88)" opacity="0.2" fill="#274b5b"/><rect style="isolation:isolate" width="2.34" height="18.14" rx="0" ry="0" transform="translate(365.3 517.88)" opacity="0.2" fill="#274b5b"/><rect style="isolation:isolate" width="2.34" height="18.14" rx="0" ry="0" transform="translate(379.93 517.88)" opacity="0.2" fill="#274b5b"/><rect style="isolation:isolate" width="2.34" height="18.14" rx="0" ry="0" transform="translate(375.25 517.88)" opacity="0.3" fill="#fff"/><rect style="isolation:isolate" width="2.34" height="18.14" rx="0" ry="0" transform="translate(361.2 517.88)" opacity="0.3" fill="#fff"/><rect style="isolation:isolate" width="2.34" height="18.14" rx="0" ry="0" transform="translate(346.57 517.88)" opacity="0.3" fill="#fff"/><rect style="isolation:isolate" width="2.34" height="18.14" rx="0" ry="0" transform="translate(331.94 517.88)" opacity="0.3" fill="#fff"/><rect style="isolation:isolate" width="2.34" height="18.14" rx="0" ry="0" transform="translate(317.31 517.88)" opacity="0.3" fill="#fff"/><rect style="isolation:isolate" width="2.34" height="18.14" rx="0" ry="0" transform="translate(302.68 517.88)" opacity="0.3" fill="#fff"/><rect style="isolation:isolate" width="2.34" height="18.14" rx="0" ry="0" transform="translate(336.04 517.88)" opacity="0.2" fill="#274b5b"/><rect width="2.34" height="21.07" rx="0" ry="0" transform="translate(319.56 517.88)" fill="#274b5b"/><rect width="2.34" height="21.07" rx="0" ry="0" transform="translate(334.09 517.88)" fill="#274b5b"/><rect width="2.34" height="21.07" rx="0" ry="0" transform="translate(348.62 517.88)" fill="#274b5b"/><rect width="2.34" height="21.07" rx="0" ry="0" transform="translate(377.69 517.88)" fill="#274b5b"/><rect width="2.34" height="21.07" rx="0" ry="0" transform="translate(392.22 517.88)" fill="#274b5b"/><rect width="2.34" height="21.07" rx="0" ry="0" transform="translate(363.15 517.88)" fill="#274b5b"/><path style="isolation:isolate" d="M742.62,319.5h-143.31q-.28-4.1-.67-8.19h56.18c5.655396,0,10.24-4.584604,10.24-10.24s-4.584604-10.24-10.24-10.24h-59.23c-2.9-14.09-7.5-27.27-14.57-38.42-13.85-21.83-35.48-32.68-56.76-35s-42.63,3.14-63.59,9c-27.91,7.8-60.7,14.82-81.73-11-12.44-15.27-17.4-40.31-13-62.12c1.178948-5.348429,2.634233-10.632179,4.36-15.83h73.82c5.655396,0,10.24-4.584604,10.24-10.24s-4.584604-10.24-10.24-10.24h-68.36c.516797-3.153501.771003-6.344452.76-9.54-.281721-15.574846-7.452352-30.223735-19.58-40-10.75-8.41-23.33-11.39-35.7-13.56-27.63-4.86-56.13-6.3-83,3.13-25.47-27.48-61.33-36.77-92.59-23.78-8.949946,3.571596-16.920041,9.224365-23.25,16.49h61.05c5.495233,0,9.95,4.454767,9.95,9.95s-4.454767,9.95-9.95,9.95h-71.68c-4.61,15-4.56,32.39-4.33,48.87c0,1.85.05,3.7.08,5.55h28.83c5.655396,0,10.24,4.584604,10.24,10.24s-4.584604,10.24-10.24,10.24h-28.53l.16,11.12h67c5.655396,0,10.24,4.584604,10.24,10.24s-4.584604,10.24-10.24,10.24h-66.72c0,2.34.06,4.72.1,7.09.24,16.63.42,33.72-3.91,49.3C91.1,280.5,43.81,292.06,18.27,330h107.55c5.655396,0,10.24,4.584604,10.24,10.24s-4.584604,10.24-10.24,10.24h-117.98q-1.4,3.72-2.54,7.61h76c5.655396,0,10.24,4.584604,10.24,10.24s-4.584604,10.24-10.24,10.24h-80.3c-2.73151,22.118247-.061987,44.569002,7.78,65.43c17.37,45.27,57.73,68.21,95.7,67.5s74.12-21.07,108.15-43.64c25.72-17.08,52.63-36.15,81.27-33.46c29.2,2.75,54.18,27.55,80.6,44.44c43,27.5,93.12,34.53,139.44,19.55c20.48-6.62,40.77-17.88,55.77-37.76c14.55-19.31,22.82-44.85,26.92-72h39.21c5.495233,0,9.95-4.454767,9.95-9.95s-4.454767-9.95-9.95-9.95h-36.95c.74-9.16,1.08-18.38,1.09-27.5v-1.23h142.64c5.655396,0,10.24-4.584604,10.24-10.24s-4.584604-10.24-10.24-10.24Z" opacity="0.4" fill="url(#e4xsDhBjA1J27-fill)"/><path d="M265.83,489.21c0,0-47.83,59.54-54.29,143-.138323,1.739505-1.482365,3.141077-3.21455,3.352141s-3.373463-.826749-3.92545-2.482141c-16.39-49.87-51.18-194,57.35-282" fill="url(#e4xsDhBjA1J28-fill)"/><path d="M210.84,637.2c.240524.785874.741304,1.466512,1.42,1.93-.955835.63867-2.156202.791148-3.241359.411736s-1.929002-1.246623-2.278641-2.341736c-16.39-49.87-51.18-194,57.35-282l.1,3.32C160.53,446.74,194.65,588,210.84,637.2Z" fill="#fff"/><path style="isolation:isolate" d="M200.14,617.91c-.28-23.14,5.62-47.4,13.37-69.12c4-11.12,8.41-21.56,12.76-30.84c13.634565-29.078225,19.987371-61.037888,18.51-93.12-.86-18.57-1.56-39.39-1.56-57.94c8.57-10.62,5.66-11.58,17.37-21.07l4.1,138.11c0,0-47.84,59.54-54.3,143-.044396,1.052109-.503595,6.19021-1.34,6.83" opacity="0.8" fill="#1b5a6e"/><path d="M200,539.54c-1.104569,0-2-.895431-2-2s.895431-2,2-2s2,.895431,2,2c-.02636,1.093465-.906535,1.97364-2,2Zm0-2.93c-.355927,0-.676807.214405-.813014.543239s-.060918.707337.19076.959015.630182.326967.959015.19076.543239-.457087.543239-.813014c0-.486011-.393989-.88-.88-.88Z" fill="#274b5b"/><path style="isolation:isolate" d="M200,541.29c-1.536957,0-2.922574-.92584-3.510742-2.345803s-.263056-3.05441.823736-4.141203s2.72124-1.411904,4.141203-.823736s2.345803,1.973785,2.345803,3.510742c-.005495,2.096402-1.703598,3.794505-3.8,3.8Zm0-5.27c-.806336,0-1.46.653664-1.46,1.46s.653664,1.46,1.46,1.46s1.46-.653664,1.46-1.46c.005352-.39067-.146103-.767185-.420488-1.045329s-.648806-.434708-1.039512-.434671Z" opacity="0.2" fill="#274b5b"/><path d="M208.17,464c-1.104569,0-2-.895431-2-2s.895431-2,2-2s2,.895431,2,2c-.02636,1.093465-.906535,1.97364-2,2Zm0-2.93c-.355927,0-.676807.214405-.813014.543239s-.060918.707337.19076.959015.630182.326967.959015.19076.543239-.457087.543239-.813014c-.026541-.466382-.412864-.830755-.88-.83Z" fill="#274b5b"/><path style="isolation:isolate" d="M208.17,465.8c-2.094697-.016538-3.780951-1.725109-3.769948-3.819842s1.715114-3.785496,3.809869-3.780027s3.790014,1.705107,3.790079,3.799869c-.002643,1.012215-.407968,1.981774-1.126524,2.694701s-1.691271,1.110616-2.703476,1.105299Zm0-5.27c-.590515,0-1.122884.355718-1.348864.901282s-.101069,1.173537.316488,1.591094s1.045529.542468,1.591094.316488.901282-.758349.901282-1.348864c0-.387216-.153821-.758573-.427624-1.032376s-.64516-.427624-1.032376-.427624Z" opacity="0.2" fill="#274b5b"/><path d="M495.51,464c-1.104569,0-2-.895431-2-2s.895431-2,2-2s2,.895431,2,2c-.02636,1.093465-.906535,1.97364-2,2Zm0-2.93c-.355927,0-.676807.214405-.813014.543239s-.060918.707337.19076.959015.630182.326967.959015.19076.543239-.457087.543239-.813014c-.026541-.466382-.412864-.830755-.88-.83Z" fill="#274b5b"/><path style="isolation:isolate" d="M495.51,465.8c-2.098682,0-3.8-1.701318-3.8-3.8s1.701318-3.8,3.8-3.8s3.8,1.701318,3.8,3.8c-.005495,2.096402-1.703598,3.794505-3.8,3.8Zm0-5.27c-.800919.016481-1.438972.675243-1.429869,1.47628s.661959,1.445131,1.463046,1.443408s1.451167-.648619,1.456823-1.449688c.002784-.394202-.15396-.772777-.434587-1.049637s-.661285-.428473-1.055413-.420363Z" opacity="0.2" fill="#274b5b"/><path d="M493.75,464c-1.104569,0-2-.895431-2-2s.895431-2,2-2s2,.895431,2,2c-.02636,1.093465-.906535,1.97364-2,2Zm0-2.93c-.355927,0-.676807.214405-.813014.543239s-.060918.707337.19076.959015.630182.326967.959015.19076.543239-.457087.543239-.813014c-.026541-.466382-.412864-.830755-.88-.83Z" fill="#274b5b"/><path style="isolation:isolate" d="M493.75,465.8c-2.098682,0-3.8-1.701318-3.8-3.8s1.701318-3.8,3.8-3.8s3.8,1.701318,3.8,3.8c-.005495,2.096402-1.703598,3.794505-3.8,3.8Zm0-5.27c-.590515,0-1.122884.355718-1.348864.901282s-.101069,1.173537.316488,1.591094s1.045529.542468,1.591094.316488.901282-.758349.901282-1.348864c0-.387216-.153821-.758573-.427624-1.032376s-.64516-.427624-1.032376-.427624Z" opacity="0.2" fill="#274b5b"/><rect width="2.34" height="191.95" rx="0" ry="0" transform="translate(217.83 404.35)" fill="#274b5b"/><rect style="isolation:isolate" width="2.34" height="196.63" rx="0" ry="0" transform="translate(220.17 399.67)" opacity="0.2" fill="#274b5b"/><rect style="isolation:isolate" width="2.34" height="191.95" rx="0" ry="0" transform="translate(215.49 404.35)" opacity="0.3" fill="#fff"/><rect width="2.34" height="173.22" rx="0" ry="0" transform="translate(231.29 379.19)" fill="#274b5b"/><rect style="isolation:isolate" width="2.34" height="173.22" rx="0" ry="0" transform="translate(233.63 379.19)" opacity="0.2" fill="#274b5b"/><rect style="isolation:isolate" width="2.34" height="173.22" rx="0" ry="0" transform="translate(228.95 379.19)" opacity="0.3" fill="#fff"/><path style="isolation:isolate" d="M472.35,697c-26.17695-.049656-47.366601-21.293008-47.35-47.47v-46.2h12.87v46.2c.00234,15.989139,10.972269,29.889175,26.523055,33.607457s31.621893-3.716088,38.856666-17.974791s3.744106-31.618588-8.439721-41.972666l8.34-9.81c14.618123,12.425683,20.312925,32.432942,14.429417,50.694143s-22.186935,31.180934-41.309417,32.735857q-1.97.19-3.92.19Z" opacity="0.2" fill="#a7594e"/><path style="isolation:isolate" d="M467,676.92c-1.395694-.001659-2.789402-.105268-4.17-.31l1.87-12.74c6.868081,1.004951,13.555163-2.727223,16.305424-9.100333s.878288-13.798869-4.564517-18.106576-13.100005-4.423806-18.670907-.283091l-7.69-10.33c9.834056-7.308288,23.260402-7.435954,33.231651-.315988s14.208959,19.860645,10.488787,31.53455-14.548161,19.613535-26.800438,19.651438Z" opacity="0.2" fill="#f08778"/><circle style="isolation:isolate" r="9.36" transform="translate(471.22 586.94)" opacity="0.2" fill="#f08778"/><path d="M489.64,639c-.240524.785874-.741304,1.466512-1.42,1.93.955835.63867,2.156202.791148,3.241359.411736s1.929002-1.246623,2.278641-2.341736c16.39-49.87,51.18-194-57.35-282l-.1,3.32C539.95,448.49,505.82,589.71,489.64,639Z" fill="#fff"/><path d="M435.13,495.06c0,0,47.83,59.54,54.29,143c.138323,1.739505,1.482365,3.141077,3.21455,3.352141s3.373463-.826749,3.92545-2.482141c16.39-49.87,51.18-194-57.35-282" fill="url(#e4xsDhBjA1J49-fill)"/><path style="isolation:isolate" d="M500.83,623.77c.28-23.14-5.62-47.4-13.37-69.12-4-11.12-8.41-21.56-12.76-30.84-13.634181-29.078351-19.986969-61.037918-18.51-93.12.86-18.57,1.56-39.39,1.56-57.94-8.57-10.62-5.66-11.58-17.37-21.07l-4.1,138.11c0,0,47.84,59.54,54.3,143c.055979,1.03788.563995,1.999092,1.39,2.63" opacity="0.8" fill="#1b5a6e"/><path d="M500.78,540.12c-1.104569,0-2-.895431-2-2s.895431-2,2-2s2,.895431,2,2c-.02636,1.093465-.906535,1.97364-2,2Zm0-2.93c-.355927,0-.676807.214405-.813014.543239s-.060918.707337.19076.959015.630182.326967.959015.19076.543239-.457087.543239-.813014c-.005479-.482101-.397868-.870031-.88-.87Z" fill="#274b5b"/><path style="isolation:isolate" d="M500.78,541.88c-1.536957,0-2.922574-.92584-3.510742-2.345803s-.263056-3.05441.823736-4.141203s2.72124-1.411904,4.141203-.823736s2.345803,1.973785,2.345803,3.510742c-.005495,2.096402-1.703598,3.794505-3.8,3.8Zm0-5.27c-.806336,0-1.46.653664-1.46,1.46s.653664,1.46,1.46,1.46s1.46-.653664,1.46-1.46c0-.387216-.153821-.758573-.427624-1.032376s-.64516-.427624-1.032376-.427624Z" opacity="0.2" fill="#274b5b"/><rect width="2.34" height="197.8" rx="0" ry="0" transform="translate(480.59 403.77)" fill="#274b5b"/><rect style="isolation:isolate" width="2.34" height="182" rx="0" ry="0" transform="translate(478.25 403.18)" opacity="0.2" fill="#274b5b"/><rect style="isolation:isolate" width="2.34" height="191.95" rx="0" ry="0" transform="translate(482.93 409.62)" opacity="0.3" fill="#fff"/><rect width="2.34" height="173.22" rx="0" ry="0" transform="translate(467.13 384.46)" fill="#274b5b"/><rect style="isolation:isolate" width="2.34" height="167.37" rx="0" ry="0" transform="translate(464.79 384.46)" opacity="0.2" fill="#274b5b"/><rect style="isolation:isolate" width="2.34" height="173.22" rx="0" ry="0" transform="translate(469.47 384.46)" opacity="0.3" fill="#fff"/><path d="M493.12,641.78c-.334233.000008-.668166-.020028-1-.06-3.825654-.437915-6.796558-3.539085-7.07-7.38-6.28-81.2-52.87-140-53.34-140.62l6.84-5.5c.5.62,12.4,15.54,25.22,41c11.5,22.81,25.83,58.6,29.72,100.88c7.93-25,19.52-71.28,16.85-121.7-3.38-63.93-28.25-115.11-73.9-152.11l5.53-6.82c25.236388,20.220311,45.233251,46.219663,58.3,75.8c10.9,24.76,17.24,52.57,18.83,82.67c2.87,54.24-10.28,103.68-18.38,128.32-1.072783,3.290112-4.139409,5.517451-7.6,5.52Z" fill="#274b5b"/><path style="isolation:isolate" d="M93.18,771.28h-41.55c-3.455318-.136238-6.186278-2.976997-6.186278-6.435s2.73096-6.298762,6.186278-6.435h41.55c3.455318.136238,6.186278,2.976997,6.186278,6.435s-2.73096,6.298762-6.186278,6.435Z" opacity="0.2" fill="#f08778"/><path style="isolation:isolate" d="M276.39,713.9c-22.57912.028627-42.775606-14.039428-50.575226-35.228656s-1.543938-44.994158,15.665226-59.611344l8.34,9.81c-14.493842,12.269149-18.665964,32.885462-10.083013,49.824661s27.674634,25.767935,46.139998,21.336929s31.471632-20.962067,31.433015-39.95159v-101.23h12.87v101.24c.005307,14.271193-5.660868,27.959544-15.751188,38.05174s-23.777619,15.760914-38.048812,15.75826Z" opacity="0.2" fill="#a7594e"/><path style="isolation:isolate" d="M374.93,738.53c-16.626333-.027582-30.090023-13.513644-30.09-30.14v-99.77h12.87v99.78c.000128,7.985114,5.477569,14.927681,13.243465,16.785879s15.79257-1.853151,19.407052-8.973373s1.873031-15.790225-4.210517-20.962506l8.34-9.81c9.283592,7.895474,12.898804,20.604725,9.160679,32.204294s-14.093868,19.806482-26.240679,20.795706q-1.24.09-2.48.09Z" opacity="0.2" fill="#f08778"/><rect style="isolation:isolate" width="12.87" height="31.02" rx="0" ry="0" transform="translate(343.65 559.43)" opacity="0.2" fill="#f08778"/><path style="isolation:isolate" d="M279.72,688c-1.395706-.001338-2.789438-.104949-4.17-.31L277.43,675c6.868081,1.004951,13.555163-2.727223,16.305424-9.100333s.878288-13.798869-4.564517-18.106576-13.100005-4.423806-18.670907-.283091l-7.69-10.33c9.82815-7.349347,23.279354-7.504434,33.274339-.38364s14.24213,19.884832,10.506192,31.574495-14.598391,19.624775-26.870531,19.629145Z" opacity="0.2" fill="#f08778"/><path style="isolation:isolate" d="M388.12,670.62c-11.310792,0-20.48-9.169208-20.48-20.48s9.169208-20.48,20.48-20.48s20.48,9.169208,20.48,20.48c-.016522,11.303941-9.176059,20.463478-20.48,20.48Zm0-28.09c-4.202887,0-7.61,3.407113-7.61,7.61s3.407113,7.61,7.61,7.61s7.61-3.407113,7.61-7.61c-.005509-4.200603-3.409397-7.604491-7.61-7.61Z" opacity="0.2" fill="#f08778"/><path style="isolation:isolate" d="M286.88,618.54c-11.310792,0-20.48-9.169208-20.48-20.48s9.169208-20.48,20.48-20.48s20.48,9.169208,20.48,20.48c-.016522,11.303941-9.176059,20.463478-20.48,20.48Zm0-28.09c-4.202887,0-7.61,3.407113-7.61,7.61s3.407113,7.61,7.61,7.61s7.61-3.407113,7.61-7.61c-.005509-4.200603-3.409397-7.604491-7.61-7.61Z" opacity="0.2" fill="#f08778"/><path style="isolation:isolate" d="M564.86,618.54c-11.310792,0-20.48-9.169208-20.48-20.48s9.169208-20.48,20.48-20.48s20.48,9.169208,20.48,20.48c-.016522,11.303941-9.176059,20.463478-20.48,20.48Zm0-28.09c-4.202887,0-7.61,3.407113-7.61,7.61s3.407113,7.61,7.61,7.61s7.61-3.407113,7.61-7.61c-.005509-4.200603-3.409397-7.604491-7.61-7.61Z" opacity="0.2" fill="#f08778"/><circle style="isolation:isolate" r="4.68" transform="translate(163.99 640.78)" opacity="0.2" fill="#f08778"/><circle style="isolation:isolate" r="4.68" transform="translate(424.99 720.95)" opacity="0.2" fill="#f08778"/><path style="isolation:isolate" d="M582.41,743.19h-12.87c-.022053-19.065154-15.47484-34.513468-34.54-34.53h-8.78v-12.87h8.78c26.168497.027548,47.376932,21.231509,47.41,47.4Z" opacity="0.2" fill="#a7594e"/><path style="isolation:isolate" d="M113.66,745.67h-12.87c.055134-51.452369,41.757621-93.145907,93.21-93.19h18.59v12.87h-18.59c-44.349042.033074-80.295884,35.970967-80.34,80.32Z" opacity="0.2" fill="#f08778"/><path style="isolation:isolate" d="M675.33,743.19h-12.88c-.060577-54.906086-44.543942-99.407343-99.45-99.49h-22.72v-12.87h22.72c62.013301.088163,112.258396,50.346678,112.33,112.36Z" opacity="0.2" fill="#f08778"/><path style="isolation:isolate" d="M176.86,743.19h-12.86c.033057-26.164592,21.235408-47.366943,47.4-47.4h8.78v12.87h-8.78c-19.06516.016532-34.517947,15.464846-34.54,34.53Z" opacity="0.2" fill="#a7594e"/><path style="isolation:isolate" d="M604.65,771.28h-489.82c-2.359511.093032-4.580715-1.112719-5.788148-3.142018s-1.207432-4.556666,0-6.585964s3.428637-3.23505,5.788148-3.142018h489.82c3.455318.136238,6.186278,2.976997,6.186278,6.435s-2.73096,6.298762-6.186278,6.435Z" opacity="0.2" fill="#f08778"/><path style="isolation:isolate" d="M28.81,771.28c-.423384.000728-.845683-.042842-1.26-.13-.413694-.081937-.818798-.202464-1.21-.36-.386493-.163929-.757909-.361348-1.11-.59-.357688-.234711-.692497-.502559-1-.8-.597363-.597583-1.069867-1.308039-1.39-2.09-.157152-.391336-.277668-.796404-.36-1.21-.171943-.831201-.171943-1.688799,0-2.52.082332-.413596.202848-.818664.36-1.21.164113-.386406.361524-.757805.59-1.11.470465-.704648,1.075352-1.309535,1.78-1.78.352091-.228652.723507-.426071,1.11-.59.391202-.157536.796306-.278063,1.21-.36.831372-.170266,1.688628-.170266,2.52,0c.41368.081994.818779.202519,1.21.36.386471.163975.757883.361392,1.11.59.704648.470465,1.309535,1.075352,1.78,1.78.228608.352117.426025.723529.59,1.11.157746.391997.281534.796818.37,1.21.16439.831957.16439,1.688043,0,2.52-.088466.413182-.212254.818003-.37,1.21-.163975.386471-.361392.757883-.59,1.11-.232453.359321-.500469.694341-.8,1-.307386.297575-.642208.565433-1,.8-.352117.228608-.723529.426025-1.11.59-.391221.157481-.79632.278006-1.21.36-.401917.077711-.810665.114566-1.22.11Z" opacity="0.2" fill="#f08778"/><path style="isolation:isolate" d="M670.19,771.28h-41.55c-3.455318-.136238-6.186278-2.976997-6.186278-6.435s2.73096-6.298762,6.186278-6.435h41.54c3.455318.136238,6.186278,2.976997,6.186278,6.435s-2.73096,6.298762-6.186278,6.435Z" opacity="0.2" fill="#f08778"/><path style="isolation:isolate" d="M693,771.28c-.423388.000801-.845695-.04277-1.26-.13-.413694-.081937-.818798-.202464-1.21-.36-.386515-.163883-.757935-.361304-1.11-.59-.357828-.234518-.692654-.50238-1-.8-.299683-.305523-.567713-.64056-.8-1-.228608-.352117-.426025-.723529-.59-1.11-.157607-.392046-.281391-.796855-.37-1.21-.16439-.831957-.16439-1.688043,0-2.52.088609-.413145.212393-.817954.37-1.21.163975-.386471.361392-.757883.59-1.11.470465-.704648,1.075352-1.309535,1.78-1.78.352065-.228696.723485-.426117,1.11-.59.391202-.157536.796306-.278063,1.21-.36.831372-.170266,1.688628-.170266,2.52,0c.413694.081937.818798.202464,1.21.36.386515.163883.757935.361304,1.11.59.704648.470465,1.309535,1.075352,1.78,1.78.22839.352246.425796.723638.59,1.11.157425.39124.277949.796334.36,1.21.171943.831201.171943,1.688799,0,2.52-.082051.413666-.202575.81876-.36,1.21-.164204.386362-.36161.757754-.59,1.11-.232671.359163-.500671.694163-.8,1-.307464.297486-.642278.565337-1,.8-.352065.228696-.723485.426117-1.11.59-.391202.157536-.796306.278063-1.21.36-.401222.084495-.809983.128051-1.22.13Z" opacity="0.2" fill="#f08778"/><path d="M207.26,641.19c-3.472317-.002435-6.546603-2.244523-7.61-5.55-8.1-24.64-21.25-74.08-18.38-128.32c1.59-30.1,7.93-57.91,18.83-82.67c13.066749-29.580337,33.063612-55.579689,58.3-75.8l5.53,6.82c-45.65,37-70.51,88.18-73.9,152.11-2.67,50.42,8.92,96.68,16.85,121.7c3.89-42.28,18.22-78.07,29.72-100.88c12.83-25.44,24.72-40.36,25.22-41l6.84,5.5v0c-.18.23-12,15-24.34,39.66-11.42,22.7-25.72,58.65-29,101-.273442,3.840915-3.244346,6.942085-7.07,7.38-.328743.035956-.659307.052652-.99.05Z" fill="#274b5b"/><path d="M360.82,5.74c-2.46783-2.798256-6.018992-4.401308-9.75-4.401308s-7.28217,1.603052-9.75,4.401308C313.22,37.55,234,139.82,234,282.78c0,139.93,30.34,202.76,42.18,221.94c2.53,4.1,8,6.73,14,6.73h121.69c6,0,11.53-2.62,14-6.73c11.83-19.18,42.18-82,42.18-221.94.06-142.96-79.12-245.24-107.23-277.04Z" fill="url(#e4xsDhBjA1J79-fill)"/><rect width="2.34" height="386.24" rx="0" ry="0" transform="translate(349.5 124.04)" fill="#274b5b"/><rect style="isolation:isolate" width="2.34" height="386.24" rx="0" ry="0" transform="translate(347.16 124.04)" opacity="0.2" fill="#274b5b"/><rect style="isolation:isolate" width="2.34" height="386.24" rx="0" ry="0" transform="translate(351.84 124.04)" opacity="0.3" fill="#fff"/><path d="M428.5,120.53h-157.36c9.597118-23.087272,20.860143-45.446215,33.7-66.9q1.68-2.81,3.34-5.49C319.7,30.88,329.85,17.65,337,8.88c2.639523-3.246385,6.600971-5.13109,10.785-5.13109s8.145477,1.884705,10.785,5.13109c15.03773,18.681515,28.837197,38.326799,41.31,58.81l.4.67c9.24,15.28,18.87,32.74,28.22,52.17Z" fill="#ecf2fa"/><path d="M427.33,117.85l-8.6-.24C404.52,96.82,365.2,54.4,311,48.55c1-1.87,5-6.7,6-8.49c7.78-12.79,14.86-20.37,20.65-28.57c3.143215-4.422317,8.2085-7.078697,13.633592-7.149846s10.558299,2.451481,13.816408,6.789846c12.202225,16.333589,23.303442,33.461466,33.23,51.27.12.22,1.42.44,1.54.67c8.44,15.31,23.95,23.76,27.46,54.78Z" fill="#8bbacc"/><path d="M294.86,105.57c-1.029802-.003267-1.982286-.546918-2.5088-1.431952s-.549748-1.981504-.0612-2.888048c2.85-5.24,6-10.5,9.09-15.6c3-4.94,6.06-10,8.8-15.07.470507-.972743,1.438215-1.607566,2.51787-1.651741s2.09599.509471,2.644392,1.440525.539846,2.088372-.022262,3.011216c-2.8,5.14-5.92,10.3-8.93,15.29s-6.18,10.24-9,15.37c-.505318.929307-1.472311,1.51409-2.53,1.53Z" fill="#fff"/><g opacity="0.4"><path d="M380.28,226.42c3.76-6.1,6.44-11.27,6.85-11.08s-1.76,5.68-5.58,11.86-7.76,10.59-8.06,10.33s3.05-5,6.79-11.11Z" fill="#426270"/><ellipse rx="8.66" ry="0.75" transform="matrix(.506786-.862072 0.862072 0.506786 385.620238 229.943257)" fill="#426270"/><path d="M381.76,230.47c5.5,2.22,10.09,3.75,10,4.16s-4.93-.51-10.53-2.77-9.73-5-9.53-5.3s4.56,1.7,10.06,3.91Z" fill="#426270"/><path d="M387,229c5,2.34,9.19,3.81,9.08,4.23s-4.61-.49-9.7-2.87-8.68-5.27-8.45-5.57s4.07,1.88,9.07,4.21Z" fill="#426270"/></g><path d="M313.36,514.37h-21.36c-6,0-11.53-2.63-14-6.75-11.83-19.22-42.17-82.21-42.17-222.48c0-137.36,72.75-237.25,103.54-273.38C311.68,44.54,251.79,131.27,251.79,268l35.11-49.26c-.68,1.9-71.59,208.15,26.46,295.63Z" fill="#fff"/><path d="M299,511.73h-5.85c-6,0-11.53-2.63-14-6.75C267.31,485.76,237,422.78,237,282.51C237,145.15,309.7,45.25,340.49,9.15c-15.71,18.62-41.91,54.74-61.55,107.6v0C258.79,162,242.81,218.11,242.81,282.49c0,140.27,30.34,203.26,42.17,222.48c2.53,4.14,8.02,6.76,14.02,6.76Z" fill="#fff"/><path style="isolation:isolate" d="M385.22,511.45h21.34c6,0,11.53-2.62,14-6.72c11.83-19.17,42.17-82,42.17-221.83C462.78,146,390,46.33,359.24,10.3c27.66,32.67,94,119.15,94,255.48L422.8,216.66c.69,1.9,60.47,207.56-37.58,294.79Z" opacity="0.8" fill="#1b5a6e"/><g opacity="0.9"><path d="M276.5,166.78c.99719-3.912473,2.195448-7.770929,3.59-11.56c1.139443-3.095935,2.454922-6.124208,3.94-9.07c2.57-5,4.81-7.82,5.74-7.43s.47,3.89-.78,9.25c-.63,2.67-1.43,5.85-2.34,9.32l-2.93,11.32L280.9,180c-.86,3.51-1.67,6.65-2.38,9.3-1.45,5.31-2.67,8.61-3.72,8.5s-1.64-3.62-1.51-9.26c.095552-3.29684.379347-6.58553.85-9.85.580801-4.008033,1.36852-7.983344,2.36-11.91Z" fill="#fff"/></g><g opacity="0.9"><ellipse rx="8.78" ry="3.73" transform="matrix(.1776-.984103 0.984103 0.1776 270.252374 211.608153)" fill="#fff"/></g><path d="M340.43,191c-1.104569,0-2-.895431-2-2s.895431-2,2-2s2,.895431,2,2c-.02636,1.093465-.906535,1.97364-2,2Zm0-2.93c-.355927,0-.676807.214405-.813014.543239s-.060918.707337.19076.959015.630182.326967.959015.19076.543239-.457087.543239-.813014c-.026541-.466382-.412864-.830755-.88-.83Z" fill="#274b5b"/><path style="isolation:isolate" d="M340.43,192.8c-2.098682,0-3.8-1.701318-3.8-3.8s1.701318-3.8,3.8-3.8s3.8,1.701318,3.8,3.8c-.005495,2.096402-1.703598,3.794505-3.8,3.8Zm0-5.27c-.590515,0-1.122884.355718-1.348864.901282s-.101069,1.173537.316488,1.591094s1.045529.542468,1.591094.316488.901282-.758349.901282-1.348864c-.005496-.802428-.657553-1.450019-1.46-1.45Z" opacity="0.2" fill="#274b5b"/><path d="M340.43,151c-1.104569,0-2-.895431-2-2s.895431-2,2-2s2,.895431,2,2c-.02636,1.093465-.906535,1.97364-2,2Zm0-2.93c-.355927,0-.676807.214405-.813014.543239s-.060918.707337.19076.959015.630182.326967.959015.19076.543239-.457087.543239-.813014c.019573-.245262-.064426-.487518-.231627-.668019s-.402332-.282761-.648373-.281981Z" fill="#274b5b"/><path style="isolation:isolate" d="M340.43,152.72c-2.098682,0-3.8-1.701318-3.8-3.8s1.701318-3.8,3.8-3.8s3.8,1.701318,3.8,3.8c-.005495,2.096402-1.703598,3.794505-3.8,3.8Zm0-5.27c-.590515,0-1.122884.355718-1.348864.901282s-.101069,1.173537.316488,1.591094s1.045529.542468,1.591094.316488.901282-.758349.901282-1.348864c0-.806336-.653664-1.46-1.46-1.46Z" opacity="0.2" fill="#274b5b"/><path d="M360.91,163.84c-1.104569,0-2-.895431-2-2s.895431-2,2-2s2,.895431,2,2c-.02636,1.093465-.906535,1.97364-2,2Zm0-2.93c-.355927,0-.676807.214405-.813014.543239s-.060918.707337.19076.959015.630182.326967.959015.19076.543239-.457087.543239-.813014c0-.486011-.393989-.88-.88-.88Z" fill="#274b5b"/><path style="isolation:isolate" d="M360.91,165.59c-2.098682,0-3.8-1.701318-3.8-3.8s1.701318-3.8,3.8-3.8s3.8,1.701318,3.8,3.8c-.005495,2.096402-1.703598,3.794505-3.8,3.8Zm0-5.27c-.590515,0-1.122884.355718-1.348864.901282s-.101069,1.173537.316488,1.591094s1.045529.542468,1.591094.316488.901282-.758349.901282-1.348864c0-.806336-.653664-1.46-1.46-1.46Z" opacity="0.2" fill="#274b5b"/><path d="M360.91,309.55c-1.104569,0-2-.895431-2-2s.895431-2,2-2s2,.895431,2,2c-.02636,1.093465-.906535,1.97364-2,2Zm0-2.93c-.355927,0-.676807.214405-.813014.543239s-.060918.707337.19076.959015.630182.326967.959015.19076.543239-.457087.543239-.813014c-.005479-.482101-.397868-.870031-.88-.87Z" fill="#274b5b"/><path style="isolation:isolate" d="M360.91,311.31c-2.098682,0-3.8-1.701318-3.8-3.8s1.701318-3.8,3.8-3.8s3.8,1.701318,3.8,3.8c-.005495,2.096402-1.703598,3.794505-3.8,3.8Zm0-5.27c-.590515,0-1.122884.355718-1.348864.901282s-.101069,1.173537.316488,1.591094s1.045529.542468,1.591094.316488.901282-.758349.901282-1.348864c.010801-.394099-.138238-.775816-.413221-1.058332s-.652532-.441816-1.046779-.441668Z" opacity="0.2" fill="#274b5b"/><path d="M361.5,339.4c-1.104569,0-2-.895431-2-2s.895431-2,2-2s2,.895431,2,2c-.02636,1.093465-.906535,1.97364-2,2Zm0-2.93c-.355927,0-.676807.214405-.813014.543239s-.060918.707337.19076.959015.630182.326967.959015.19076.543239-.457087.543239-.813014c0-.486011-.393989-.88-.88-.88Z" fill="#274b5b"/><path style="isolation:isolate" d="M361.5,341.15c-2.098682,0-3.8-1.701318-3.8-3.8s1.701318-3.8,3.8-3.8s3.8,1.701318,3.8,3.8c-.005495,2.096402-1.703598,3.794505-3.8,3.8Zm0-5.27c-.590515,0-1.122884.355718-1.348864.901282s-.101069,1.173537.316488,1.591094s1.045529.542468,1.591094.316488.901282-.758349.901282-1.348864c-.005496-.802428-.657553-1.450019-1.46-1.45Z" opacity="0.2" fill="#274b5b"/><path d="M338.67,301.36c-1.104569,0-2-.895431-2-2s.895431-2,2-2s2,.895431,2,2c-.02636,1.093465-.906535,1.97364-2,2Zm0-2.93c-.355927,0-.676807.214405-.813014.543239s-.060918.707337.19076.959015.630182.326967.959015.19076.543239-.457087.543239-.813014c0-.486011-.393989-.88-.88-.88Z" fill="#274b5b"/><path style="isolation:isolate" d="M338.67,303.11c-2.098682,0-3.8-1.701318-3.8-3.8s1.701318-3.8,3.8-3.8s3.8,1.701318,3.8,3.8c-.005495,2.096402-1.703598,3.794505-3.8,3.8Zm0-5.27c-.590515,0-1.122884.355718-1.348864.901282s-.101069,1.173537.316488,1.591094s1.045529.542468,1.591094.316488.901282-.758349.901282-1.348864c-.005496-.802428-.657553-1.450019-1.46-1.45Z" opacity="0.2" fill="#274b5b"/><path d="M338.67,331.2c-1.104569,0-2-.895431-2-2s.895431-2,2-2s2,.895431,2,2c-.02636,1.093465-.906535,1.97364-2,2Zm0-2.93c-.355927,0-.676807.214405-.813014.543239s-.060918.707337.19076.959015.630182.326967.959015.19076.543239-.457087.543239-.813014c-.005479-.482101-.397868-.870031-.88-.87Z" fill="#274b5b"/><path style="isolation:isolate" d="M338.67,333c-2.098682,0-3.8-1.701318-3.8-3.8s1.701318-3.8,3.8-3.8s3.8,1.701318,3.8,3.8c-.005495,2.096402-1.703598,3.794505-3.8,3.8Zm0-5.27c-.590515,0-1.122884.355718-1.348864.901282s-.101069,1.173537.316488,1.591094s1.045529.542468,1.591094.316488.901282-.758349.901282-1.348864c.010801-.394099-.138238-.775816-.413221-1.058332s-.652532-.441816-1.046779-.441668Z" opacity="0.2" fill="#274b5b"/><path d="M340.43,231.13c-1.104569,0-2-.895431-2-2s.895431-2,2-2s2,.895431,2,2c-.02636,1.093465-.906535,1.97364-2,2Zm0-2.93c-.355927,0-.676807.214405-.813014.543239s-.060918.707337.19076.959015.630182.326967.959015.19076.543239-.457087.543239-.813014c-.005479-.482101-.397868-.870031-.88-.87Z" fill="#274b5b"/><path style="isolation:isolate" d="M340.43,232.89c-2.098682,0-3.8-1.701318-3.8-3.8s1.701318-3.8,3.8-3.8s3.8,1.701318,3.8,3.8c-.005495,2.096402-1.703598,3.794505-3.8,3.8Zm0-5.27c-.590515,0-1.122884.355718-1.348864.901282s-.101069,1.173537.316488,1.591094s1.045529.542468,1.591094.316488.901282-.758349.901282-1.348864c0-.806336-.653664-1.46-1.46-1.46Z" opacity="0.2" fill="#274b5b"/><path d="M387.25,108.83c-1.104569,0-2-.895431-2-2s.895431-2,2-2s2,.895431,2,2c-.02636,1.093465-.906535,1.97364-2,2Zm0-2.93c-.355927,0-.676807.214405-.813014.543239s-.060918.707337.19076.959015.630182.326967.959015.19076.543239-.457087.543239-.813014c0-.486011-.393989-.88-.88-.88Z" fill="#274b5b"/><path style="isolation:isolate" d="M387.25,110.58c-2.098682,0-3.8-1.701318-3.8-3.8s1.701318-3.8,3.8-3.8s3.8,1.701318,3.8,3.8c-.005495,2.096402-1.703598,3.794505-3.8,3.8Zm0-5.27c-.590515,0-1.122884.355718-1.348864.901282s-.101069,1.173537.316488,1.591094s1.045529.542468,1.591094.316488.901282-.758349.901282-1.348864c0-.806336-.653664-1.46-1.46-1.46Z" opacity="0.2" fill="#274b5b"/><path d="M313.51,108.83c-1.104569,0-2-.895431-2-2s.895431-2,2-2s2,.895431,2,2c-.02636,1.093465-.906535,1.97364-2,2Zm0-2.93c-.355927,0-.676807.214405-.813014.543239s-.060918.707337.19076.959015.630182.326967.959015.19076.543239-.457087.543239-.813014c0-.486011-.393989-.88-.88-.88Z" fill="#274b5b"/><path style="isolation:isolate" d="M313.51,110.58c-2.098682,0-3.8-1.701318-3.8-3.8s1.701318-3.8,3.8-3.8s3.8,1.701318,3.8,3.8c-.005495,2.096402-1.703598,3.794505-3.8,3.8Zm0-5.27c-.590515,0-1.122884.355718-1.348864.901282s-.101069,1.173537.316488,1.591094s1.045529.542468,1.591094.316488.901282-.758349.901282-1.348864c0-.806336-.653664-1.46-1.46-1.46Z" opacity="0.2" fill="#274b5b"/><path d="M350.38,108.83c-1.104569,0-2-.895431-2-2s.895431-2,2-2s2,.895431,2,2c-.02636,1.093465-.906535,1.97364-2,2Zm0-2.93c-.355927,0-.676807.214405-.813014.543239s-.060918.707337.19076.959015.630182.326967.959015.19076.543239-.457087.543239-.813014c0-.486011-.393989-.88-.88-.88Z" fill="#274b5b"/><path style="isolation:isolate" d="M350.38,110.58c-2.098682,0-3.8-1.701318-3.8-3.8s1.701318-3.8,3.8-3.8s3.8,1.701318,3.8,3.8c-.005495,2.096402-1.703598,3.794505-3.8,3.8Zm0-5.27c-.590515,0-1.122884.355718-1.348864.901282s-.101069,1.173537.316488,1.591094s1.045529.542468,1.591094.316488.901282-.758349.901282-1.348864c0-.806336-.653664-1.46-1.46-1.46Z" opacity="0.2" fill="#274b5b"/><path d="M340.43,375.68c-1.104569,0-2-.895431-2-2s.895431-2,2-2s2,.895431,2,2c-.02636,1.093465-.906535,1.97364-2,2Zm0-2.93c-.355927,0-.676807.214405-.813014.543239s-.060918.707337.19076.959015.630182.326967.959015.19076.543239-.457087.543239-.813014c0-.486011-.393989-.88-.88-.88Z" fill="#274b5b"/><path style="isolation:isolate" d="M340.43,377.44c-2.098682,0-3.8-1.701318-3.8-3.8s1.701318-3.8,3.8-3.8s3.8,1.701318,3.8,3.8c-.005495,2.096402-1.703598,3.794505-3.8,3.8Zm0-5.27c-.590515,0-1.122884.355718-1.348864.901282s-.101069,1.173537.316488,1.591094s1.045529.542468,1.591094.316488.901282-.758349.901282-1.348864c0-.806336-.653664-1.46-1.46-1.46Z" opacity="0.2" fill="#274b5b"/><path d="M340.43,418.59c-1.104569,0-2-.895431-2-2s.895431-2,2-2s2,.895431,2,2c-.02636,1.093465-.906535,1.97364-2,2Zm0-2.93c-.355927,0-.676807.214405-.813014.543239s-.060918.707337.19076.959015.630182.326967.959015.19076.543239-.457087.543239-.813014c-.005479-.482101-.397868-.870031-.88-.87Z" fill="#274b5b"/><path style="isolation:isolate" d="M340.43,420.35c-2.098682,0-3.8-1.701318-3.8-3.8s1.701318-3.8,3.8-3.8s3.8,1.701318,3.8,3.8c-.005495,2.096402-1.703598,3.794505-3.8,3.8Zm0-5.27c-.590515,0-1.122884.355718-1.348864.901282s-.101069,1.173537.316488,1.591094s1.045529.542468,1.591094.316488.901282-.758349.901282-1.348864c0-.387216-.153821-.758573-.427624-1.032376s-.64516-.427624-1.032376-.427624Z" opacity="0.2" fill="#274b5b"/><path d="M340.43,461.51c-1.104569,0-2-.895431-2-2s.895431-2,2-2s2,.895431,2,2c-.02636,1.093465-.906535,1.97364-2,2Zm0-2.93c-.355927,0-.676807.214405-.813014.543239s-.060918.707337.19076.959015.630182.326967.959015.19076.543239-.457087.543239-.813014c-.005479-.482101-.397868-.870031-.88-.87Z" fill="#274b5b"/><path style="isolation:isolate" d="M340.43,463.27c-2.098682,0-3.8-1.701318-3.8-3.8s1.701318-3.8,3.8-3.8s3.8,1.701318,3.8,3.8c-.005495,2.096402-1.703598,3.794505-3.8,3.8Zm0-5.27c-.590515,0-1.122884.355718-1.348864.901282s-.101069,1.173537.316488,1.591094s1.045529.542468,1.591094.316488.901282-.758349.901282-1.348864c0-.806336-.653664-1.46-1.46-1.46Z" opacity="0.2" fill="#274b5b"/><path d="M340.43,504.43c-1.104569,0-2-.895431-2-2s.895431-2,2-2s2,.895431,2,2c-.02636,1.093465-.906535,1.97364-2,2Zm0-2.93c-.355927,0-.676807.214405-.813014.543239s-.060918.707337.19076.959015.630182.326967.959015.19076.543239-.457087.543239-.813014c0-.486011-.393989-.88-.88-.88Z" fill="#274b5b"/><path style="isolation:isolate" d="M340.43,506.18c-2.098682,0-3.8-1.701318-3.8-3.8s1.701318-3.8,3.8-3.8s3.8,1.701318,3.8,3.8c-.005495,2.096402-1.703598,3.794505-3.8,3.8Zm0-5.27c-.590515,0-1.122884.355718-1.348864.901282s-.101069,1.173537.316488,1.591094s1.045529.542468,1.591094.316488.901282-.758349.901282-1.348864c0-.806336-.653664-1.46-1.46-1.46Z" opacity="0.2" fill="#274b5b"/><circle style="isolation:isolate" r="49.45" transform="translate(353.89 240.79)" opacity="0.6" fill="#5c7869"/><circle r="49.45" transform="translate(354.47 222.65)" fill="#94e0f7"/><path style="isolation:isolate" d="M353.89,269.17c-23.748244,0-43-19.251756-43-43s19.251756-43,43-43s43,19.251756,43,43c-.033049,23.734541-19.265459,42.966951-43,43Zm0-83.1c-22.138489.011044-40.07736,17.964836-40.069998,40.103327s17.95817,40.080347,40.096661,40.076667s40.083334-17.951502,40.083337-40.089994c-.022065-22.139758-17.970234-40.078977-40.11-40.09Z" opacity="0.2" fill="#274b5b"/><path d="M371,178.56l-28.2,94.77c-7.201857-1.921024-13.873109-5.453265-19.51-10.33L349,176.57c7.389703-.998155,14.909351-.317968,22,1.99Z" fill="#fff"/><path d="M386.73,187.12l-26.1,87.65c-1.66123.169638-3.330134.253083-5,.25-2.00546.002123-4.009182-.1181-6-.36l27.83-93.46c3.30049,1.622546,6.409711,3.608154,9.27,5.92Z" fill="#fff"/><path style="isolation:isolate" d="M319.06,236.59c-.57763-.003746-1.066081-.428486-1.15-1-1.687282-10.711781.349296-21.678241,5.77-31.07c3.07-5.26,6.67-8.41,10.72-9.37.629605-.149117,1.260883.240395,1.41.87s-.240395,1.260883-.87,1.41c-3.4.8-6.51,3.58-9.24,8.26-5.150689,8.926724-7.084906,19.349613-5.48,29.53.048518.310822-.030176.628086-.218325.880206s-.469898.417849-.781675.459794Z" opacity="0.8" fill="#fff"/><path d="M387.83,229.38c-1.104569,0-2-.895431-2-2s.895431-2,2-2s2,.895431,2,2c-.02636,1.093465-.906535,1.97364-2,2Zm0-2.93c-.355927,0-.676807.214405-.813014.543239s-.060918.707337.19076.959015.630182.326967.959015.19076.543239-.457087.543239-.813014c0-.486011-.393989-.88-.88-.88Z" fill="#274b5b"/><path style="isolation:isolate" d="M387.83,231.13c-2.098682,0-3.8-1.701318-3.8-3.8s1.701318-3.8,3.8-3.8s3.8,1.701318,3.8,3.8c-.005495,2.096402-1.703598,3.794505-3.8,3.8Zm0-5.27c-.590515,0-1.122884.355718-1.348864.901282s-.101069,1.173537.316488,1.591094s1.045529.542468,1.591094.316488.901282-.758349.901282-1.348864c-.005496-.802428-.657553-1.450019-1.46-1.45Z" opacity="0.2" fill="#274b5b"/><path d="M353.89,281.75c-30.701509,0-55.59-24.888491-55.59-55.59s24.888491-55.59,55.59-55.59s55.59,24.888491,55.59,55.59c-.038567,30.68552-24.90448,55.551433-55.59,55.59Zm0-98.9c-23.919453,0-43.31,19.390547-43.31,43.31s19.390547,43.31,43.31,43.31s43.31-19.390547,43.31-43.31c-.022052-23.910312-19.399688-43.287948-43.31-43.31Z" fill="#274b5b"/><path d="M322.51,509.11v-85.4c-.031146-28.886847,10.860313-56.7174,30.49-77.91v0c19.276627,21.12937,29.946608,48.708649,29.91,77.31v85.89" fill="#ecf2fa"/><path d="M357.11,357.22c-17.371291,20.218922-26.921916,45.993546-26.92,72.65v83.92h-7v-83.92c.000629-28.478898,10.903384-55.877123,30.47-76.57v0q1.77,1.93,3.45,3.92Z" fill="#fff"/><path d="M377,428.22v84.4l-24.22.05c22.54-45.3,15.39-106.33,10.82-137.44c8.79664,16.276943,13.401843,34.488115,13.4,52.99Z" fill="#8bbacc"/><path d="M341,403.18c-1.104569,0-2-.895431-2-2s.895431-2,2-2s2,.895431,2,2c-.02636,1.093465-.906535,1.97364-2,2Zm0-2.93c-.355927,0-.676807.214405-.813014.543239s-.060918.707337.19076.959015.630182.326967.959015.19076.543239-.457087.543239-.813014c-.005479-.482101-.397868-.870031-.88-.87Z" fill="#274b5b"/><path style="isolation:isolate" d="M341,404.94c-2.098682,0-3.8-1.701318-3.8-3.8s1.701318-3.8,3.8-3.8s3.8,1.701318,3.8,3.8c-.005495,2.096402-1.703598,3.794505-3.8,3.8Zm0-5.27c-.590515,0-1.122884.355718-1.348864.901282s-.101069,1.173537.316488,1.591094s1.045529.542468,1.591094.316488.901282-.758349.901282-1.348864c0-.806336-.653664-1.46-1.46-1.46Z" opacity="0.2" fill="#274b5b"/><path d="M341,488.62c-1.104569,0-2-.895431-2-2s.895431-2,2-2s2,.895431,2,2c-.02636,1.093465-.906535,1.97364-2,2Zm0-2.93c-.355927,0-.676807.214405-.813014.543239s-.060918.707337.19076.959015.630182.326967.959015.19076.543239-.457087.543239-.813014c-.005479-.482101-.397868-.870031-.88-.87Z" fill="#274b5b"/><path style="isolation:isolate" d="M341,490.38c-2.098682,0-3.8-1.701318-3.8-3.8s1.701318-3.8,3.8-3.8s3.8,1.701318,3.8,3.8c-.005495,2.096402-1.703598,3.794505-3.8,3.8Zm0-5.27c-.590515,0-1.122884.355718-1.348864.901282s-.101069,1.173537.316488,1.591094s1.045529.542468,1.591094.316488.901282-.758349.901282-1.348864c0-.806336-.653664-1.46-1.46-1.46Z" opacity="0.2" fill="#274b5b"/><path d="M341,445.9c-1.104569,0-2-.895431-2-2s.895431-2,2-2s2,.895431,2,2c-.02636,1.093465-.906535,1.97364-2,2Zm0-2.93c-.355927,0-.676807.214405-.813014.543239s-.060918.707337.19076.959015.630182.326967.959015.19076.543239-.457087.543239-.813014c-.016177-.474256-.405468-.850276-.88-.85Z" fill="#274b5b"/><path style="isolation:isolate" d="M341,447.66c-2.098682,0-3.8-1.701318-3.8-3.8s1.701318-3.8,3.8-3.8s3.8,1.701318,3.8,3.8c-.005495,2.096402-1.703598,3.794505-3.8,3.8Zm0-5.27c-.590515,0-1.122884.355718-1.348864.901282s-.101069,1.173537.316488,1.591094s1.045529.542468,1.591094.316488.901282-.758349.901282-1.348864c0-.387216-.153821-.758573-.427624-1.032376s-.64516-.427624-1.032376-.427624Z" opacity="0.2" fill="#274b5b"/><path d="M359.74,403.18c-1.104569,0-2-.895431-2-2s.895431-2,2-2s2,.895431,2,2c-.02636,1.093465-.906535,1.97364-2,2Zm0-2.93c-.355927,0-.676807.214405-.813014.543239s-.060918.707337.19076.959015.630182.326967.959015.19076.543239-.457087.543239-.813014c-.005479-.482101-.397868-.870031-.88-.87Z" fill="#274b5b"/><path style="isolation:isolate" d="M359.74,404.94c-2.098682,0-3.8-1.701318-3.8-3.8s1.701318-3.8,3.8-3.8s3.8,1.701318,3.8,3.8c-.005495,2.096402-1.703598,3.794505-3.8,3.8Zm0-5.27c-.590515,0-1.122884.355718-1.348864.901282s-.101069,1.173537.316488,1.591094s1.045529.542468,1.591094.316488.901282-.758349.901282-1.348864c0-.806336-.653664-1.46-1.46-1.46Z" opacity="0.2" fill="#274b5b"/><path d="M359.74,488.62c-1.104569,0-2-.895431-2-2s.895431-2,2-2s2,.895431,2,2c-.02636,1.093465-.906535,1.97364-2,2Zm0-2.93c-.355927,0-.676807.214405-.813014.543239s-.060918.707337.19076.959015.630182.326967.959015.19076.543239-.457087.543239-.813014c-.005479-.482101-.397868-.870031-.88-.87Z" fill="#274b5b"/><path style="isolation:isolate" d="M359.74,490.38c-2.098682,0-3.8-1.701318-3.8-3.8s1.701318-3.8,3.8-3.8s3.8,1.701318,3.8,3.8c-.005495,2.096402-1.703598,3.794505-3.8,3.8Zm0-5.27c-.590515,0-1.122884.355718-1.348864.901282s-.101069,1.173537.316488,1.591094s1.045529.542468,1.591094.316488.901282-.758349.901282-1.348864c0-.806336-.653664-1.46-1.46-1.46Z" opacity="0.2" fill="#274b5b"/><path d="M359.74,445.9c-1.104569,0-2-.895431-2-2s.895431-2,2-2s2,.895431,2,2c-.02636,1.093465-.906535,1.97364-2,2Zm0-2.93c-.355927,0-.676807.214405-.813014.543239s-.060918.707337.19076.959015.630182.326967.959015.19076.543239-.457087.543239-.813014c-.016177-.474256-.405468-.850276-.88-.85Z" fill="#274b5b"/><path style="isolation:isolate" d="M359.74,447.66c-2.098682,0-3.8-1.701318-3.8-3.8s1.701318-3.8,3.8-3.8s3.8,1.701318,3.8,3.8c-.005495,2.096402-1.703598,3.794505-3.8,3.8Zm0-5.27c-.590515,0-1.122884.355718-1.348864.901282s-.101069,1.173537.316488,1.591094s1.045529.542468,1.591094.316488.901282-.758349.901282-1.348864c0-.387216-.153821-.758573-.427624-1.032376s-.64516-.427624-1.032376-.427624Z" opacity="0.2" fill="#274b5b"/><rect width="2.34" height="158.59" rx="0" ry="0" transform="translate(349.5 351.69)" fill="#274b5b"/><rect style="isolation:isolate" width="2.34" height="150.98" rx="0" ry="0" transform="translate(347.74 357.54)" opacity="0.2" fill="#274b5b"/><rect style="isolation:isolate" width="2.34" height="150.4" rx="0" ry="0" transform="translate(352.43 357.54)" opacity="0.8" fill="#fff"/><path d="M387.54,545.68h-74.32c-16.945375-.016469-30.685937-13.734674-30.73-30.68v-4.39h135.77v4.39c-.044047,16.941428-13.778529,30.658027-30.72,30.68Zm-95.83-26.33c2.103151,10.206708,11.078885,17.537587,21.5,17.56h74.32c10.40984-.036593,19.369156-7.364287,21.47-17.56Z" fill="#274b5b"/><path style="isolation:isolate" d="M412.81,154.56v0c4.084383-.987417,8.393741-.311466,11.97964,1.879083s6.154454,5.716169,7.14036,9.800917l3.77,15.6c.998829,4.092862.326028,8.415012-1.869614,12.010611s-5.733215,6.168385-9.830386,7.149389v0c-4.084383.987417-8.393741.311466-11.97964-1.879083s-6.154454-5.716169-7.14036-9.800917l-3.77-15.6c-.998829-4.092862-.326028-8.415012,1.869614-12.010611s5.733215-6.168385,9.830386-7.149389Z" opacity="0.15" fill="#fff"/><path style="isolation:isolate" d="M398.74,147.68v0c3.478209-2.35679,7.750259-3.235172,11.876163-2.441874s7.767613,3.193281,10.123837,6.671874v0c2.35679,3.478209,3.235172,7.750259,2.441874,11.876163s-3.193281,7.767613-6.671874,10.123837v0c-3.478209,2.35679-7.750259,3.235172-11.876163,2.441874s-7.767613-3.193281-10.123837-6.671874v0c-2.35679-3.478209-3.235172-7.750259-2.441874-11.876163s3.193281-7.767613,6.671874-10.123837Z" opacity="0.15" fill="#fff"/><rect width="146.3" height="2.93" rx="0" ry="0" transform="translate(273.13 115.56)" fill="#8bbacc"/><rect width="160.45" height="8.78" rx="0" ry="0" transform="translate(270.98 117.5)" fill="#274b5b"/><path d="M410.69,515.84h-121.61c-7.6,0-14.42-3.38-17.78-8.81-12.88-20.89-42.83-84.56-42.83-224.4c0-137.05,72.2-237.39,103.24-274.17c4.520227-5.359082,11.174136-8.45149,18.185-8.45149s13.664773,3.092408,18.185,8.45149v0c31,36.78,103.25,137.13,103.22,274.17c0,139.81-30,203.5-42.83,224.39-3.31,5.43-10.13,8.82-17.78,8.82ZM349.87,8.78c-3.538174-.004367-6.96244,1.250488-9.66,3.54-.645877.545339-1.244661,1.144123-1.79,1.79C308,50.16,237.25,148.47,237.25,282.63c0,60,5.56,112.21,16.51,155.28c9,35.49,19.54,55.65,25,64.51c1.72,2.78,5.86,4.64,10.31,4.64h121.62c4.47,0,8.61-1.86,10.3-4.63c5.47-8.88,16-29,25-64.53c11-43.07,16.52-95.31,16.52-155.28c0-134.15-70.73-232.47-101.15-268.51v0c-2.561584-3.052953-6.238086-4.95422-10.21-5.28q-.64-.05-1.28-.05Z" fill="#274b5b"/><path d="M324.56,510.39h-8.78v-83.93c-.043802-29.607339,11.294749-58.098716,31.67-79.58l3.21-3.4l3.19,3.42c20.019148,21.429953,31.13448,49.674121,31.09,79v84.4h-8.78v-84.4c.034503-25.446503-9.027208-50.067402-25.55-69.42-16.840221,19.428689-26.091738,44.288811-26.05,70Z" fill="#274b5b"/><path d="M495.51,462.88c-1.104569,0-2-.895431-2-2s.895431-2,2-2s2,.895431,2,2c-.02636,1.093465-.906535,1.97364-2,2Zm0-2.93c-.355927,0-.676807.214405-.813014.543239s-.060918.707337.19076.959015.630182.326967.959015.19076.543239-.457087.543239-.813014c0-.486011-.393989-.88-.88-.88Z" fill="#274b5b"/><path style="isolation:isolate" d="M495.51,464.63c-2.098682,0-3.8-1.701318-3.8-3.8s1.701318-3.8,3.8-3.8s3.8,1.701318,3.8,3.8c-.005495,2.096402-1.703598,3.794505-3.8,3.8Zm0-5.27c-.590515,0-1.122884.355718-1.348864.901282s-.101069,1.173537.316488,1.591094s1.045529.542468,1.591094.316488.901282-.758349.901282-1.348864c0-.806336-.653664-1.46-1.46-1.46Z" opacity="0.2" fill="#274b5b"/></g></g></g></g></svg>
